<?xml  version="1.0" encoding="UTF-8"?>
<!DOCTYPE svg PUBLIC "-//W3C//DTD SVG 1.0//EN" "http://www.w3.org/TR/2001/REC-SVG-20010904/DTD/svg10.dtd" >
<svg xmlns="http://www.w3.org/2000/svg" >
<metadata>
<version>1.0</version>
<id><![CDATA[DIN Next Rounded LT W01 Medium]]></id>
<vendor>Monotype Imaging Inc.</vendor>
<credits>
<name>Fonts.com WebFonts</name>
<URL>http://webfonts.fonts.com</URL>
<role>Home of the Web fonts</role>
</credits>
<license>
<URL>http://webfonts.fonts.com/Legal</URL>
</license>
<copyright><![CDATA[Copyright © 2010 Linotype GmbH, www.linotype.com. All rights reserved. This font software may not be reproduced, modified, disclosed or transferred without the express written approval of Linotype GmbH.]]></copyright>
<trademark></trademark>
<licensee>
<name></name>
</licensee>
</metadata>
<defs >
<font horiz-adv-x="509" id="ed3349df-8331-450b-80a3-d83208eb54eb">
<font-face font-family="" panose-1="2 15 6 3 2 2 3 5 2 3" ascent="921" descent="-213" units-per-em="1000" alphabetic="0">
</font-face>
<missing-glyph horiz-adv-x="0" />

<glyph unicode="&#xA;" />
<glyph unicode="&#xD;" horiz-adv-x="0" />
<glyph unicode=" " horiz-adv-x="239" />
<glyph unicode="!" horiz-adv-x="306" d="M153 190Q129 190 113 205T97 250V626Q97 654 113 669T153 685Q177 685 193 670T209 626V250Q209 221 193 206T153 190ZM84 60Q84 89 104 109T153 129Q182 129 202 109T222 60Q222 31 202 11T153 -9Q124 -9 104 11T84 60Z"  />
<glyph unicode="&quot;" horiz-adv-x="346" d="M244 482Q226 482 215 493T203 526V641Q203 663 214 674T244 685Q262 685 273 674T285 641V526Q285 505 274 494T244 482ZM102 482Q84 482 73 493T61 526V641Q61 663 72 674T102 685Q120 685 131 674T143 641V526Q143 505 132 494T102 482Z"  />
<glyph unicode="#" horiz-adv-x="537" d="M97 210H55Q35 210 25 221T14 249Q14 266 24 277T55 288H107L123 404H81Q61 404 51 415T40 443Q40 460 50 471T81 482H134L156 645Q162 685 198 685Q219 685 229 671T237 634L216 482H333L355 645Q361 685 397 685Q418 685 428 671T436 634L415 482H459Q479 482 489 471T500 443Q500 426 490 415T459 404H404L389 288H433Q453 288 463 277T474 249Q474 232 464 221T433 210H378L354 35Q348 -5 312 -5Q291 -5 281 9T273 46L295 210H179L155 35Q149 -5 113 -5Q92 -5 82 9T74 46L97 210ZM306 288L322 404H205L189 288H306Z"  />
<glyph unicode="$" horiz-adv-x="549" d="M81 40Q56 55 56 84Q56 105 70 120T107 135Q115 135 123 133T139 126Q165 112 193 102T250 90V295Q164 309 116 359T67 487Q67 529 80 564T118 625T176 668T250 689V726Q250 759 279 759Q293 759 301 751T309 726V690Q344 687 375 678T431 654Q458 638 458 608Q458 588 445 574T410 559Q396 559 384 565Q365 573 347 579T309 588V393Q400 378 446 328T493 200Q493 115 444 60T309 -8V-49Q309 -65 301 -73T279 -82Q250 -82 250 -49V-11Q196 -9 153 6T81 40ZM250 588Q216 581 196 556T176 495Q176 463 191 440T250 405V588ZM309 93Q384 111 384 196Q384 225 368 248T309 284V93Z"  />
<glyph unicode="%" horiz-adv-x="781" d="M170 20Q170 32 176 43L540 673Q553 695 576 695Q592 695 602 685T612 659Q612 648 605 636L241 7Q229 -16 206 -16Q190 -16 180 -6T170 20ZM192 330Q147 330 115 351T71 409Q68 417 67 425T64 444T63 470T62 509Q62 532 62 547T64 574T66 593T71 609Q82 645 114 666T192 688Q237 688 269 667T313 609Q316 601 317 593T320 574T321 548T322 509Q322 486 322 471T320 444T318 425T313 409Q302 373 270 352T192 330ZM192 402Q208 402 219 409T236 431Q237 434 238 439T239 452T240 474T241 509Q241 530 241 543T240 565T238 579T236 587Q231 601 220 608T192 616Q176 616 165 609T148 587Q147 584 146 579T145 566T144 544T143 509Q143 488 143 475T144 453T146 439T148 431Q153 417 164 410T192 402ZM468 70Q465 78 464 86T461 105T460 131T459 170Q459 193 459 208T461 235T463 254T468 270Q479 306 511 327T589 349Q634 349 666 328T710 270Q713 262 714 254T717 235T718 209T719 170Q719 147 719 132T717 105T715 86T710 70Q699 34 667 13T589 -9Q544 -9 512 12T468 70ZM545 92Q550 78 561 71T589 63Q605 63 616 70T633 92Q634 95 635 100T636 113T637 135T638 170Q638 191 638 204T637 226T635 240T633 248Q628 262 617 269T589 277Q573 277 562 270T545 248Q544 245 543 240T542 227T541 205T540 170Q540 149 540 136T541 114T543 100T545 92Z"  />
<glyph unicode="&amp;" horiz-adv-x="646" d="M64 171Q64 225 92 274T193 379Q172 406 158 426T134 465T121 499T117 535Q117 569 130 597T166 647T220 679T286 691Q323 691 354 679T406 645T440 596T452 538Q452 515 446 495T426 454T390 411T334 364L440 228L487 284Q504 304 525 304Q545 304 558 291T571 258Q571 240 556 222L499 153L523 122Q534 108 540 104T558 100Q582 100 596 86T610 50Q610 28 595 14T550 0H546Q512 0 492 11T447 53L430 74Q386 30 346 10T253 -11Q206 -11 171 2T112 40T76 98T64 171ZM275 440Q299 458 313 472T336 497T347 518T350 539Q350 564 332 581T287 599Q258 599 240 582T222 538Q222 529 224 521T231 503T247 477T275 440ZM168 177Q168 136 192 111T261 86Q289 86 314 99T373 148L252 303Q203 265 186 235T168 177Z"  />
<glyph unicode="&apos;" horiz-adv-x="204" d="M102 482Q84 482 73 493T61 526V641Q61 663 72 674T102 685Q120 685 131 674T143 641V526Q143 505 132 494T102 482Z"  />
<glyph unicode="(" horiz-adv-x="300" d="M154 -57Q102 38 77 130T51 328Q51 433 76 525T154 713Q172 744 199 744Q219 744 230 732T242 701Q242 690 236 675Q198 587 178 505T158 328Q158 234 178 152T236 -19Q242 -34 242 -45Q242 -63 231 -75T199 -88Q172 -88 154 -57Z"  />
<glyph unicode=")" horiz-adv-x="300" d="M57 -19Q95 69 115 151T135 328Q135 422 115 504T57 675Q51 690 51 701Q51 719 62 731T94 744Q121 744 139 713Q191 618 216 526T242 328Q242 223 217 131T139 -57Q121 -88 94 -88Q74 -88 63 -76T51 -45Q51 -34 57 -19Z"  />
<glyph unicode="*" horiz-adv-x="336" d="M168 388Q154 388 146 397T137 423L138 484L86 453Q75 447 65 447Q53 447 45 455T36 478Q36 498 54 507L107 536L55 565Q36 575 36 595Q36 608 44 617T66 626Q75 626 86 620L138 588L137 650Q137 666 145 675T168 685Q182 685 191 676T200 650L199 589L250 620Q260 626 270 626Q283 626 291 617T300 595Q300 575 281 565L228 536L282 507Q300 498 300 478Q300 464 292 456T271 447Q260 447 250 453L199 484L200 423Q200 407 191 398T168 388Z"  />
<glyph unicode="+" horiz-adv-x="549" d="M225 222Q225 228 219 228H103Q79 228 66 241T52 276Q52 297 65 310T103 324H219Q225 324 225 330V446Q225 472 239 485T274 499Q296 499 310 486T324 446V330Q324 324 330 324H446Q470 324 483 311T497 276Q497 255 484 242T446 228H330Q324 228 324 222V106Q324 80 310 67T274 53Q253 53 239 66T225 106V222Z"  />
<glyph unicode="&#x2c;" horiz-adv-x="242" d="M94 84Q100 103 113 113T143 123Q164 123 179 110T195 72Q195 62 192 53L145 -83Q139 -102 126 -112T96 -122Q74 -122 61 -109T48 -71Q48 -61 51 -52L94 84Z"  />
<glyph unicode="-" horiz-adv-x="385" d="M91 216Q66 216 52 229T38 266Q38 288 52 301T91 315H294Q319 315 333 302T347 266Q347 243 333 230T294 216H91Z"  />
<glyph unicode="." horiz-adv-x="248" d="M53 61Q53 90 74 111T124 132Q153 132 174 111T195 61Q195 32 174 11T124 -10Q95 -10 74 11T53 61Z"  />
<glyph unicode="/" horiz-adv-x="425" d="M64 30Q64 35 65 41T68 52L265 658Q277 696 311 696Q332 696 346 684T361 650Q361 645 360 639T357 628L160 22Q148 -16 114 -16Q93 -16 79 -4T64 30Z"  />
<glyph unicode="0" horiz-adv-x="549" d="M81 122Q78 132 75 145T71 182T68 243T67 340Q67 399 68 436T70 497T75 534T81 558Q101 622 149 656T274 691Q350 691 398 657T468 558Q471 547 474 534T478 498T481 437T482 340Q482 281 481 244T479 183T474 146T468 122Q447 58 399 24T274 -11Q198 -11 150 23T81 122ZM191 143Q210 89 274 89Q338 89 358 143Q361 151 362 161T365 192T366 248T367 340Q367 397 367 432T365 488T363 519T358 537Q338 591 274 591Q210 591 191 537Q188 529 187 519T184 488T183 432T182 340Q182 283 182 248T184 192T186 161T191 143Z"  />
<glyph unicode="1" horiz-adv-x="549" d="M247 547H245L170 494Q156 484 136 484Q117 484 103 498T89 533Q89 560 119 582L228 659Q246 672 262 678T298 685Q326 685 342 667T359 619V54Q359 26 344 11T303 -5Q278 -5 263 10T247 54V547Z"  />
<glyph unicode="2" horiz-adv-x="549" d="M63 49Q63 66 70 81T97 119L319 394Q340 420 352 445T364 500Q364 542 340 566T273 591Q236 591 214 575T178 525Q163 485 126 485Q103 485 88 498T73 535Q73 539 73 542T75 551Q81 577 96 602T137 647T197 679T276 691Q323 691 360 677T423 637T462 577T476 502Q476 454 458 414T408 336L213 102V100H429Q454 100 467 86T481 50Q481 28 468 14T429 0H116Q91 0 77 13T63 49Z"  />
<glyph unicode="3" horiz-adv-x="549" d="M76 100Q71 115 71 127Q71 148 84 162T122 177Q154 177 174 141Q188 115 211 102T270 89Q318 89 345 117T372 192Q372 243 341 271T264 300H254Q231 300 218 314T204 350Q204 372 217 386T254 400H264Q306 400 331 427T357 499Q357 542 333 566T265 591Q229 591 209 577T178 540Q170 523 157 514T128 505Q105 505 91 519T77 555Q77 568 83 582Q102 627 148 659T269 691Q316 691 353 677T417 639T456 580T470 506Q470 457 449 421T394 362V360Q410 352 426 338T455 303T476 255T484 193Q484 148 468 111T424 46T356 4T271 -11Q195 -11 146 20T76 100Z"  />
<glyph unicode="4" horiz-adv-x="549" d="M98 110Q69 110 54 125T38 167Q38 182 42 194T57 230L254 649Q262 666 274 675T306 685Q329 685 343 671T358 633Q358 618 349 599L166 212V210H319Q325 210 325 216V338Q325 365 340 380T379 396Q403 396 420 381T437 338V216Q437 210 443 210H465Q490 210 503 196T517 160Q517 138 504 124T465 110H443Q437 110 437 104V54Q437 26 422 11T381 -5Q356 -5 341 10T325 54V104Q325 110 319 110H98Z"  />
<glyph unicode="5" horiz-adv-x="549" d="M86 100Q84 105 83 110T82 121Q82 143 96 156T132 170Q147 170 159 164T182 140Q196 117 219 103T275 89Q307 89 330 102T362 144Q367 158 369 175T372 220Q372 248 370 264T362 294Q351 324 330 337T278 351Q228 351 200 313Q186 296 173 289T142 281Q117 281 103 296T88 339V631Q88 680 137 680H423Q448 680 461 666T475 630Q475 608 462 594T423 580H197Q191 580 191 574V417H193Q210 432 234 441T300 451Q432 451 470 339Q477 318 480 290T484 220Q484 185 481 159T470 113Q450 53 398 21T276 -11Q199 -11 151 21T86 100Z"  />
<glyph unicode="6" horiz-adv-x="549" d="M58 199Q58 240 70 279T103 355L268 654Q284 685 318 685Q339 685 354 672T370 635Q370 618 362 603L245 398L247 396Q255 400 268 402T298 405Q337 405 372 391T434 351T476 288T492 204Q492 152 475 112T429 45T360 3T275 -11Q230 -11 190 3T121 44T75 110T58 199ZM171 197Q171 149 199 119T275 89Q323 89 351 119T379 197Q379 245 351 275T275 305Q227 305 199 275T171 197Z"  />
<glyph unicode="7" horiz-adv-x="549" d="M157 48Q157 61 161 72L363 577V580H192Q186 580 186 574V538Q186 512 171 497T133 481Q110 481 95 496T80 538V627Q80 652 94 666T134 680H425Q455 680 471 664T487 621Q487 607 483 593T468 549L262 31Q255 13 241 4T210 -5Q186 -5 172 10T157 48Z"  />
<glyph unicode="8" horiz-adv-x="549" d="M55 193Q55 251 80 292T140 356V358Q114 375 92 411T70 497Q70 535 83 570T123 632T187 675T274 691Q323 691 361 675T426 632T465 570T479 497Q479 447 457 411T409 358V356Q444 334 469 293T494 193Q494 148 478 111T433 46T363 4T274 -11Q226 -11 186 4T117 46T71 110T55 193ZM274 407Q316 407 341 434T366 499Q366 537 341 564T274 591Q232 591 208 564T183 499Q183 462 207 435T274 407ZM168 198Q168 150 197 120T274 89Q323 89 352 119T381 198Q381 246 352 276T274 307Q226 307 197 277T168 198Z"  />
<glyph unicode="9" horiz-adv-x="549" d="M179 45Q179 62 187 77L304 282L302 284Q294 280 281 278T251 275Q212 275 177 289T115 329T73 392T57 476Q57 528 74 568T120 635T189 677T274 691Q319 691 359 677T428 636T474 570T491 481Q491 440 479 401T446 325L281 26Q265 -5 231 -5Q210 -5 195 8T179 45ZM274 375Q322 375 350 405T378 483Q378 531 350 561T274 591Q226 591 198 561T170 483Q170 435 198 405T274 375Z"  />
<glyph unicode=":" horiz-adv-x="258" d="M129 345Q100 345 79 366T58 416Q58 445 79 466T129 487Q158 487 179 466T200 416Q200 387 179 366T129 345ZM58 61Q58 90 79 111T129 132Q158 132 179 111T200 61Q200 32 179 11T129 -10Q100 -10 79 11T58 61Z"  />
<glyph unicode=";" horiz-adv-x="258" d="M78 84Q84 103 97 113T127 123Q148 123 163 110T179 72Q179 62 176 53L129 -83Q123 -102 110 -112T80 -122Q58 -122 45 -109T32 -71Q32 -61 35 -52L78 84ZM129 345Q100 345 79 366T58 416Q58 445 79 466T129 487Q158 487 179 466T200 416Q200 387 179 366T129 345Z"  />
<glyph unicode="&lt;" horiz-adv-x="549" d="M104 215Q52 237 52 276Q52 315 104 337L424 471Q436 476 449 476Q469 476 483 464T497 430Q497 398 461 382L202 277V275L461 170Q497 156 497 122Q497 101 483 89T449 76Q436 76 424 81L104 215Z"  />
<glyph unicode="=" horiz-adv-x="549" d="M103 329Q79 329 66 342T52 377Q52 398 65 411T103 425H446Q470 425 483 412T497 377Q497 356 484 343T446 329H103ZM103 127Q79 127 66 140T52 175Q52 196 65 209T103 223H446Q470 223 483 210T497 175Q497 154 484 141T446 127H103Z"  />
<glyph unicode="&gt;" horiz-adv-x="549" d="M100 76Q80 76 66 88T52 122Q52 156 88 170L347 275V277L88 382Q52 398 52 430Q52 451 66 463T100 476Q113 476 125 471L445 337Q497 315 497 276Q497 237 445 215L125 81Q113 76 100 76Z"  />
<glyph unicode="?" horiz-adv-x="464" d="M224 186Q201 186 185 200T169 241V248Q169 280 177 303T209 354L264 420Q290 451 298 471T306 515Q306 546 286 568T229 591Q196 591 175 575T143 529Q135 509 122 500T91 490Q68 490 54 503T39 539Q39 544 40 551T43 565Q60 621 108 656T232 691Q275 691 309 678T368 641T406 586T420 516Q420 477 407 445T365 378L305 307Q290 289 285 277T279 247V241Q279 215 263 201T224 186ZM157 60Q157 89 177 109T226 129Q254 129 274 109T295 60Q295 31 275 11T226 -9Q197 -9 177 11T157 60Z"  />
<glyph unicode="@" horiz-adv-x="902" d="M54 268Q54 355 83 427T164 550T290 631T451 660Q538 660 611 631T736 551T817 427T846 268Q846 214 834 174T799 107T746 67T682 54Q639 54 608 70T560 118H559Q543 88 512 72T426 55Q372 55 336 79T284 152Q277 172 274 197T270 264Q270 305 273 330T284 376Q300 425 334 449T419 473Q461 473 489 458T531 420H533V429Q535 444 546 455T579 467Q599 467 611 455T623 420V210Q623 170 639 153T681 136Q754 136 754 267Q754 337 733 394T673 492T577 555T451 578Q380 578 324 556T228 493T167 395T146 268Q146 199 167 142T228 44T324 -19T452 -42Q512 -42 556 -34T642 -6Q647 -4 652 -3T662 -2Q677 -2 688 -12T700 -40Q700 -65 674 -77Q624 -103 571 -113T452 -124Q363 -124 290 -95T165 -15T83 109T54 268ZM370 194Q388 138 447 138Q507 138 525 194Q529 206 531 221T533 264Q533 292 531 307T525 334Q507 390 447 390Q388 390 370 334Q366 322 364 307T362 264Q362 236 364 221T370 194Z"  />
<glyph unicode="A" horiz-adv-x="617" d="M29 50Q29 56 30 61T33 72L231 618Q242 650 260 667T309 685Q340 685 358 668T388 618L584 72Q586 67 587 62T588 50Q588 24 571 10T531 -5Q511 -5 497 5T475 36L438 142H178L142 36Q135 16 121 6T86 -5Q63 -5 46 9T29 50ZM402 247L310 512H307L215 247H402Z"  />
<glyph unicode="B" horiz-adv-x="607" d="M75 627Q75 651 89 665T128 680H338Q445 680 497 631T550 500Q550 446 529 410T471 355V353Q509 338 535 297T562 196Q562 99 502 50T334 0H128Q103 0 89 14T75 52V627ZM335 397Q380 397 406 421T432 486Q432 527 406 551T335 576H199Q193 576 193 570V403Q193 397 199 397H335ZM193 110Q193 104 199 104H341Q391 104 417 130T444 199Q444 241 418 267T341 293H199Q193 293 193 287V110Z"  />
<glyph unicode="C" horiz-adv-x="567" d="M74 153Q69 171 65 188T59 226T56 274T55 340Q55 378 56 405T59 454T65 492T74 527Q100 608 161 649T310 691Q382 691 435 661T515 580Q525 562 525 545Q525 522 510 507T471 492Q456 492 444 499T419 524Q399 555 374 570T310 585Q261 585 232 562T188 496Q185 485 183 473T179 444T176 401T175 340Q175 304 176 279T178 237T182 207T188 184Q202 142 231 119T310 95Q348 95 373 110T419 156Q431 173 443 180T471 188Q494 188 509 173T525 134Q525 118 515 100Q489 49 436 19T310 -11Q222 -11 161 30T74 153Z"  />
<glyph unicode="D" horiz-adv-x="625" d="M75 627Q75 651 89 665T128 680H295Q399 680 462 643T552 524Q557 508 560 491T566 453T570 404T572 340Q572 304 571 277T567 228T561 189T552 156Q526 75 463 38T295 0H128Q103 0 89 14T75 52V627ZM193 112Q193 106 199 106H289Q349 106 386 127T439 197Q445 218 448 250T452 340Q452 397 449 429T439 483Q423 531 386 552T289 574H199Q193 574 193 568V112Z"  />
<glyph unicode="E" horiz-adv-x="570" d="M75 627Q75 651 89 665T128 680H467Q495 680 511 665T527 627Q527 604 511 589T467 574H199Q193 574 193 568V402Q193 396 199 396H417Q445 396 461 381T477 343Q477 320 461 305T417 290H199Q193 290 193 284V112Q193 106 199 106H467Q495 106 511 91T527 53Q527 30 511 15T467 0H128Q103 0 89 14T75 53V627Z"  />
<glyph unicode="F" horiz-adv-x="561" d="M75 627Q75 651 89 665T128 680H467Q495 680 511 665T527 627Q527 604 511 589T467 574H199Q193 574 193 568V395Q193 389 199 389H417Q445 389 461 374T477 336Q477 313 461 298T417 283H199Q193 283 193 277V57Q193 28 177 12T134 -5Q108 -5 92 11T75 57V627Z"  />
<glyph unicode="G" horiz-adv-x="627" d="M74 152Q68 170 65 188T59 227T56 276T55 340Q55 377 56 404T59 452T64 492T74 528Q100 609 162 650T315 691Q395 691 450 661T532 582Q542 564 542 547Q542 524 527 509T488 494Q473 494 461 500T436 524Q395 585 315 585Q263 585 233 561T188 495Q185 484 183 472T179 441T176 399T175 340Q175 306 176 282T178 239T182 209T188 185Q202 143 233 119T316 95Q364 95 397 117T444 181Q450 199 452 222T455 268Q455 274 449 274H371Q347 274 333 288T319 324Q319 346 333 360T371 374H524Q547 374 559 362T572 326V307Q572 265 568 225T554 156Q528 75 466 32T315 -11Q225 -11 163 30T74 152Z"  />
<glyph unicode="H" horiz-adv-x="657" d="M75 623Q75 652 91 668T134 685Q160 685 176 669T193 623V402Q193 396 199 396H458Q464 396 464 402V623Q464 652 480 668T523 685Q549 685 565 669T582 623V57Q582 28 566 12T523 -5Q497 -5 481 11T464 57V284Q464 290 458 290H199Q193 290 193 284V57Q193 28 177 12T134 -5Q108 -5 92 11T75 57V623Z"  />
<glyph unicode="I" horiz-adv-x="268" d="M75 623Q75 652 91 668T134 685Q160 685 176 669T193 623V57Q193 28 177 12T134 -5Q108 -5 92 11T75 57V623Z"  />
<glyph unicode="J" horiz-adv-x="505" d="M54 42Q37 59 37 85Q37 106 51 120T89 135Q109 135 133 118Q148 107 168 101T208 95Q258 95 287 125T316 224V623Q316 652 332 668T375 685Q401 685 417 669T434 623V231Q434 173 418 128T371 52T299 5T204 -11Q159 -11 118 4T54 42Z"  />
<glyph unicode="K" horiz-adv-x="606" d="M75 623Q75 652 91 668T134 685Q160 685 176 669T193 623V347L450 660Q470 685 498 685Q520 685 535 671T551 634Q551 612 537 595L378 409L568 88Q579 69 579 51Q579 28 564 12T522 -5Q487 -5 466 30L300 318L193 187V57Q193 28 177 12T134 -5Q108 -5 92 11T75 57V623Z"  />
<glyph unicode="L" horiz-adv-x="545" d="M75 623Q75 652 91 668T134 685Q160 685 176 669T193 623V112Q193 106 199 106H467Q495 106 511 91T527 53Q527 30 511 15T467 0H134Q107 0 91 16T75 59V623Z"  />
<glyph unicode="M" horiz-adv-x="756" d="M75 614Q75 647 93 666T141 685Q167 685 182 671T211 624L379 247H383L547 624Q561 656 575 670T616 685Q646 685 663 666T681 614V53Q681 25 666 10T627 -5Q603 -5 588 10T572 53V426H567L443 144Q429 113 415 102T379 91Q357 91 343 102T314 144L189 426H184V53Q184 25 169 10T130 -5Q106 -5 91 10T75 53V614Z"  />
<glyph unicode="N" horiz-adv-x="657" d="M75 614Q75 647 93 666T142 685Q168 685 185 671T220 627L470 203H473V627Q473 655 488 670T528 685Q551 685 566 670T582 627V66Q582 33 564 14T516 -5Q490 -5 472 9T437 53L188 477H184V53Q184 25 169 10T130 -5Q106 -5 91 10T75 53V614Z"  />
<glyph unicode="O" horiz-adv-x="627" d="M55 340Q55 377 56 404T59 452T65 492T75 528Q101 609 163 650T313 691Q402 691 464 650T552 528Q558 510 562 492T568 453T571 404T572 340Q572 303 571 276T568 228T562 188T552 152Q526 71 464 30T313 -11Q225 -11 163 30T75 152Q69 170 65 188T59 227T56 276T55 340ZM452 340Q452 374 451 398T449 441T445 472T438 496Q424 538 394 561T313 585Q263 585 233 562T189 496Q185 485 183 472T179 441T176 399T175 340Q175 306 176 282T178 239T182 208T189 184Q203 142 233 119T313 95Q364 95 394 118T438 184Q442 195 444 208T448 239T451 281T452 340Z"  />
<glyph unicode="P" horiz-adv-x="598" d="M134 -5Q108 -5 92 11T75 57V627Q75 651 89 665T127 680H340Q389 680 430 665T501 622T547 555T564 469Q564 421 548 382T502 316T431 273T340 257H199Q193 257 193 251V57Q193 28 177 12T134 -5ZM333 364Q386 364 416 392T446 469Q446 516 416 545T333 574H199Q193 574 193 568V370Q193 364 199 364H333Z"  />
<glyph unicode="Q" horiz-adv-x="627" d="M458 27Q399 -11 313 -11Q225 -11 163 30T75 152Q69 170 65 188T59 227T56 276T55 340Q55 377 56 404T59 452T65 492T75 528Q101 609 163 650T313 691Q402 691 464 650T552 528Q558 510 562 492T568 453T571 404T572 340Q572 303 571 276T568 228T562 188T552 152Q547 139 543 128T532 106L580 61Q598 43 598 20Q598 -3 583 -18T544 -34Q521 -34 502 -15L458 27ZM453 340Q453 374 452 399T450 442T446 473T439 497Q425 539 395 562T313 586Q263 586 233 563T188 497Q184 486 182 473T178 442T175 399T174 340Q174 306 175 281T177 238T181 207T188 183Q202 141 232 118T313 94Q350 94 376 107L332 149Q314 167 314 190Q314 213 329 228T368 244Q391 244 410 225L442 193Q448 214 450 246T453 340Z"  />
<glyph unicode="R" horiz-adv-x="619" d="M507 -5Q467 -5 449 32L326 275H199Q193 275 193 269V57Q193 28 177 12T134 -5Q108 -5 92 11T75 57V627Q75 651 89 665T128 680H348Q395 680 434 665T503 624T548 560T565 477Q565 412 532 365T444 294L555 87Q564 70 564 51Q564 28 549 12T507 -5ZM344 381Q391 381 419 407T448 477Q448 522 420 548T344 574H199Q193 574 193 568V387Q193 381 199 381H344Z"  />
<glyph unicode="S" horiz-adv-x="587" d="M287 -11Q218 -11 164 8T75 50Q45 69 45 101Q45 122 60 138T98 155Q117 155 136 144Q175 121 212 108T293 95Q356 95 390 121T425 193Q425 230 399 254T302 287L267 292Q61 319 61 487Q61 533 77 570T123 635T195 676T290 691Q346 691 395 678T475 645Q505 628 505 597Q505 574 491 560T453 545Q444 545 434 547T416 554Q387 568 356 576T289 585Q235 585 208 559T181 494Q181 457 209 435T305 402L339 397Q444 383 494 335T545 198Q545 153 529 115T480 48T400 5T287 -11Z"  />
<glyph unicode="T" horiz-adv-x="550" d="M75 574Q47 574 31 589T15 627Q15 650 31 665T75 680H475Q503 680 519 665T535 627Q535 604 519 589T475 574H340Q334 574 334 568V57Q334 28 318 12T275 -5Q249 -5 233 11T216 57V568Q216 574 210 574H75Z"  />
<glyph unicode="U" horiz-adv-x="643" d="M321 -11Q267 -11 222 6T143 55T90 133T71 239V623Q71 652 87 668T130 685Q156 685 172 669T189 623V241Q189 170 226 133T321 95Q380 95 417 132T454 241V623Q454 652 470 668T513 685Q539 685 555 669T572 623V239Q572 180 553 134T501 55T421 6T321 -11Z"  />
<glyph unicode="V" horiz-adv-x="565" d="M283 -5Q257 -5 240 10T210 63L25 605Q21 616 21 630Q21 653 37 669T78 685Q120 685 135 640L284 186H287L430 640Q445 685 487 685Q513 685 528 669T544 630Q544 624 543 618T540 605L355 63Q342 25 325 10T283 -5Z"  />
<glyph unicode="W" horiz-adv-x="828" d="M658 57Q649 23 634 9T595 -5Q571 -5 556 9T532 57L415 475H413L296 57Q287 24 272 10T233 -5Q209 -5 195 9T170 57L22 606Q19 618 19 629Q19 653 34 669T76 685Q98 685 112 673T134 632L238 211H240L356 632Q371 685 414 685Q457 685 472 632L591 211H593L695 632Q702 661 716 673T752 685Q779 685 794 669T809 629Q809 618 806 606L658 57Z"  />
<glyph unicode="X" horiz-adv-x="574" d="M484 -5Q454 -5 435 23L288 251H286L139 23Q120 -5 90 -5Q65 -5 50 10T34 48Q34 67 45 84L219 352L61 596Q49 614 49 632Q49 655 64 670T105 685Q135 685 154 657L286 452H288L420 657Q438 685 469 685Q493 685 509 670T525 632Q525 614 513 596L355 352L529 84Q540 66 540 48Q540 25 525 10T484 -5Z"  />
<glyph unicode="Y" horiz-adv-x="536" d="M268 -5Q242 -5 226 11T209 57V278L29 600Q20 616 20 632Q20 655 36 670T76 685Q109 685 128 651L268 395H271L410 651Q428 685 462 685Q486 685 501 670T516 632Q516 616 507 600L327 278V57Q327 28 311 12T268 -5Z"  />
<glyph unicode="Z" horiz-adv-x="538" d="M98 0Q68 0 52 16T36 56Q36 77 44 95T72 142L355 572V574H105Q79 574 64 589T48 627Q48 650 63 665T105 680H438Q468 680 484 664T500 624Q500 606 494 590T466 542L181 108V106H443Q469 106 484 91T500 53Q500 30 485 15T443 0H98Z"  />
<glyph unicode="[" horiz-adv-x="282" d="M171 654Q165 654 165 648V8Q165 2 171 2H210Q233 2 245 -9T257 -41Q257 -61 245 -72T210 -84H106Q86 -84 74 -73T62 -41V697Q62 717 74 728T106 740H210Q233 740 245 729T257 697Q257 677 245 666T210 654H171Z"  />
<glyph unicode="\" horiz-adv-x="425" d="M68 628Q66 633 65 639T64 650Q64 672 78 684T114 696Q148 696 160 658L357 52Q359 47 360 41T361 30Q361 8 347 -4T311 -16Q277 -16 265 22L68 628Z"  />
<glyph unicode="]" horiz-adv-x="282" d="M72 654Q49 654 37 665T25 697Q25 717 37 728T72 740H176Q196 740 208 729T220 697V-41Q220 -61 208 -72T176 -84H72Q49 -84 37 -73T25 -41Q25 -21 37 -10T72 2H111Q117 2 117 8V648Q117 654 111 654H72Z"  />
<glyph unicode="^" horiz-adv-x="549" d="M430 258Q396 258 382 294L276 543H274L168 294Q154 258 120 258Q100 258 86 270T72 303Q72 315 78 330L217 641Q227 664 240 674T275 685Q296 685 309 675T333 641L472 330Q478 315 478 303Q478 282 464 270T430 258Z"  />
<glyph unicode="_" horiz-adv-x="500" d="M0 -142V-70H500V-142H0Z"  />
<glyph unicode="`" horiz-adv-x="444" d="M248 545Q225 545 211 565L160 638Q154 647 152 653T149 670Q149 688 162 699T193 711Q217 711 231 691L280 617Q291 600 291 585Q291 567 279 556T248 545Z"  />
<glyph unicode="a" horiz-adv-x="523" d="M479 80Q488 63 488 47Q488 24 472 10T432 -5Q401 -5 385 18L369 42H368Q347 17 311 3T226 -11Q140 -11 96 27T51 135Q51 213 102 251T243 289H342Q348 289 348 295V307Q348 349 323 372T240 396Q214 396 191 390T152 376Q137 370 123 370Q103 370 90 382T77 416Q77 428 83 440T105 460Q128 474 165 483T252 493Q355 493 404 445T454 306V154Q454 135 456 126T464 106L479 80ZM242 80Q291 80 319 99T348 156V199Q348 205 342 205H262Q206 205 182 189T158 140Q158 80 242 80Z"  />
<glyph unicode="b" horiz-adv-x="545" d="M129 685Q154 685 169 670T185 626V436H186Q202 459 233 476T316 493Q376 493 419 461T481 371Q490 343 494 313T498 241Q498 200 494 170T481 111Q462 54 419 22T316 -11Q265 -11 234 5T186 46H185Q181 23 168 9T129 -5Q104 -5 89 10T73 54V626Q73 654 88 669T129 685ZM285 393Q253 393 230 379T195 329Q185 299 185 241Q185 183 195 153Q206 118 229 104T285 89Q317 89 340 103T374 153Q384 183 384 241Q384 299 374 329Q363 364 340 378T285 393Z"  />
<glyph unicode="c" horiz-adv-x="476" d="M260 -11Q187 -11 135 23T62 122Q47 167 47 241Q47 315 62 360Q83 425 135 459T260 493Q311 493 350 476T412 432Q423 420 427 410T432 388Q432 367 418 353T383 339Q370 339 359 345T337 363Q323 378 305 385T261 393Q229 393 206 378T171 330Q165 312 163 291T161 241Q161 213 163 192T171 152Q182 120 205 105T261 89Q287 89 305 96T337 119Q348 130 359 136T383 143Q404 143 418 129T432 94Q432 83 428 73T412 50Q389 24 350 7T260 -11Z"  />
<glyph unicode="d" horiz-adv-x="545" d="M416 685Q441 685 456 670T472 626V54Q472 26 457 11T416 -5Q391 -5 378 9T360 46H359Q342 21 311 5T229 -11Q169 -11 126 21T64 111Q55 139 51 169T47 241Q47 282 51 312T64 371Q83 428 126 460T229 493Q280 493 311 476T359 436H360V626Q360 654 375 669T416 685ZM260 393Q228 393 205 379T171 329Q161 299 161 241Q161 183 171 153Q182 118 205 104T260 89Q292 89 315 103T350 153Q360 183 360 241Q360 299 350 329Q339 364 316 378T260 393Z"  />
<glyph unicode="e" horiz-adv-x="521" d="M266 -11Q188 -11 136 24T64 123Q56 146 52 174T47 241Q47 279 51 308T63 360Q83 423 135 458T260 493Q335 493 386 458T458 360Q466 336 470 308T474 244Q474 227 464 216T435 205H166Q160 205 160 199Q160 188 162 179T167 162Q192 89 276 89Q307 89 329 97T375 122Q385 129 395 133T416 138Q438 138 450 125T463 91Q463 65 440 47Q408 21 367 5T266 -11ZM361 295Q361 318 355 336Q345 365 320 381T261 398Q226 398 201 382T166 336Q160 318 160 295Q160 289 166 289H355Q361 289 361 295Z"  />
<glyph unicode="f" horiz-adv-x="329" d="M252 680Q278 680 293 667T309 630Q309 608 295 594T258 580Q223 580 212 568T200 522V488Q200 482 206 482H261Q282 482 294 470T307 438Q307 418 295 407T261 395H206Q200 395 200 389V54Q200 26 184 11T144 -5Q119 -5 104 10T88 54V389Q88 395 81 395H65Q44 395 32 406T19 438Q19 458 31 470T65 482H81Q88 482 88 488V520Q88 608 126 644T248 680H252Z"  />
<glyph unicode="g" horiz-adv-x="536" d="M238 -191Q214 -191 191 -187T147 -175T110 -157T83 -136Q75 -128 72 -118T68 -99Q68 -79 81 -65T116 -50Q128 -50 139 -54T161 -66Q198 -91 244 -91Q296 -91 323 -64T351 25V69H350Q332 41 301 27T222 13Q162 13 121 44T61 133Q53 159 49 187T45 252Q45 324 61 373Q80 430 121 461T222 493Q273 493 304 476T352 432H353V443Q357 461 370 474T407 487Q432 487 447 472T463 428V39Q463 -77 406 -134T238 -191ZM351 253Q351 298 340 329Q329 361 309 377T255 393Q221 393 201 377T170 329Q159 298 159 253Q159 207 170 176Q181 144 201 128T255 112Q289 112 309 128T340 176Q351 207 351 253Z"  />
<glyph unicode="h" horiz-adv-x="548" d="M424 -5Q399 -5 384 10T368 54V288Q368 335 346 364T277 393Q232 393 209 364T185 288V54Q185 26 170 11T129 -5Q104 -5 89 10T73 54V626Q73 654 88 669T129 685Q154 685 169 670T185 626V437H186Q205 463 237 478T313 493Q352 493 382 480T435 442T468 386T480 314V54Q480 26 465 11T424 -5Z"  />
<glyph unicode="i" horiz-adv-x="258" d="M62 622Q62 650 81 669T129 689Q157 689 176 670T196 622Q196 594 177 575T129 555Q101 555 82 574T62 622ZM129 -5Q104 -5 89 10T73 54V428Q73 456 88 471T129 487Q154 487 169 472T185 428V54Q185 26 170 11T129 -5Z"  />
<glyph unicode="j" horiz-adv-x="258" d="M62 622Q62 650 81 669T129 689Q157 689 176 670T196 622Q196 594 177 575T129 555Q101 555 82 574T62 622ZM32 -180Q6 -180 -7 -167T-20 -132Q-20 -88 26 -81Q53 -76 63 -64T73 -21V428Q73 456 88 471T129 487Q154 487 169 472T185 428V-20Q185 -105 148 -142T32 -180Z"  />
<glyph unicode="k" horiz-adv-x="520" d="M185 280L359 467Q369 477 378 482T401 487Q420 487 434 474T449 441Q449 430 444 421T431 402L330 300L469 79Q479 62 479 49Q479 26 464 11T425 -5Q391 -5 373 25L253 225L185 152V54Q185 26 170 11T129 -5Q104 -5 89 10T73 54V626Q73 654 88 669T129 685Q154 685 169 670T185 626V280Z"  />
<glyph unicode="l" horiz-adv-x="291" d="M203 -6Q129 -6 100 30T71 135V626Q71 654 86 669T127 685Q151 685 167 670T183 626V144Q183 118 192 108T222 94Q247 91 258 78T269 45Q269 23 255 9T211 -6H203Z"  />
<glyph unicode="m" horiz-adv-x="843" d="M73 428Q73 456 88 471T129 487Q154 487 167 473T185 437H186Q202 460 233 476T313 493Q356 493 389 477T445 429H446Q474 459 511 476T600 493Q642 493 674 480T729 442T763 386T775 314V54Q775 26 760 11T719 -5Q694 -5 679 10T663 54V288Q663 335 640 364T572 393Q528 393 504 364T480 288V54Q480 26 465 11T424 -5Q399 -5 384 10T368 54V288Q368 335 345 364T277 393Q233 393 209 364T185 288V54Q185 26 170 11T129 -5Q104 -5 89 10T73 54V428Z"  />
<glyph unicode="n" horiz-adv-x="548" d="M186 437Q205 463 237 478T313 493Q352 493 382 480T435 442T468 386T480 314V54Q480 26 465 11T424 -5Q399 -5 384 10T368 54V288Q368 335 346 364T277 393Q232 393 209 364T185 288V54Q185 26 170 11T129 -5Q104 -5 89 10T73 54V428Q73 456 88 471T129 487Q154 487 167 473T185 437H186Z"  />
<glyph unicode="o" horiz-adv-x="523" d="M262 -11Q188 -11 136 24T63 122Q55 148 51 174T47 241Q47 281 51 307T63 360Q83 423 135 458T262 493Q335 493 387 458T460 360Q468 334 472 308T476 241Q476 201 472 175T460 122Q440 59 388 24T262 -11ZM262 89Q296 89 318 105T352 152Q358 171 360 190T362 241Q362 272 360 291T352 330Q341 360 319 376T262 393Q228 393 205 377T171 330Q165 310 163 291T161 241Q161 210 163 191T171 152Q182 122 205 106T262 89Z"  />
<glyph unicode="p" horiz-adv-x="545" d="M129 -185Q104 -185 89 -170T73 -126V428Q73 456 88 471T129 487Q154 487 167 473T185 436H186Q203 461 234 477T316 493Q376 493 419 461T481 371Q490 343 494 313T498 241Q498 200 494 170T481 111Q462 54 419 22T316 -11Q265 -11 234 6T186 46H185V-126Q185 -154 170 -169T129 -185ZM285 89Q317 89 340 103T374 153Q384 183 384 241Q384 299 374 329Q363 364 340 378T285 393Q253 393 230 379T195 329Q185 299 185 241Q185 183 195 153Q206 118 229 104T285 89Z"  />
<glyph unicode="q" horiz-adv-x="545" d="M416 -185Q391 -185 376 -170T360 -126V46H359Q343 23 312 6T229 -11Q169 -11 126 21T64 111Q55 139 51 169T47 241Q47 282 51 312T64 371Q83 428 126 460T229 493Q280 493 311 477T359 436H360Q364 459 377 473T416 487Q441 487 456 472T472 428V-126Q472 -154 457 -169T416 -185ZM260 89Q292 89 315 103T350 153Q360 183 360 241Q360 299 350 329Q339 364 316 378T260 393Q228 393 205 379T171 329Q161 299 161 241Q161 183 171 153Q182 118 205 104T260 89Z"  />
<glyph unicode="r" horiz-adv-x="420" d="M185 426H186Q202 454 233 473T308 493Q328 493 343 489T369 480Q399 464 399 434Q399 409 384 393T344 377Q333 377 318 382Q307 385 296 387T273 390Q226 390 206 357T185 268V54Q185 26 170 11T129 -5Q105 -5 89 10T73 54V428Q73 456 88 471T129 487Q154 487 169 472T185 428V426Z"  />
<glyph unicode="s" horiz-adv-x="498" d="M250 -11Q194 -11 149 3T74 38Q47 55 47 83Q47 103 61 118T98 134Q114 134 133 123Q161 106 189 95T256 84Q298 84 321 99T345 141Q345 163 329 176T265 194L213 199Q138 207 102 243T65 341Q65 410 113 451T252 493Q294 493 331 483T398 457Q415 448 423 437T432 411Q432 390 419 376T385 362Q371 362 350 373Q327 384 300 391T246 399Q208 399 191 385T173 349Q173 328 189 316T252 298L304 293Q381 285 417 248T453 151Q453 79 401 34T250 -11Z"  />
<glyph unicode="t" horiz-adv-x="322" d="M59 395Q38 395 26 406T13 438Q13 458 25 470T59 482H73Q80 482 80 488V576Q80 604 96 619T137 635Q161 635 176 620T192 576V488Q192 482 198 482H249Q270 482 282 470T295 438Q295 418 283 407T249 395H198Q192 395 192 389V149Q192 120 202 109T244 94Q270 92 282 78T295 44Q295 23 280 9T234 -6H225Q146 -6 113 30T80 146V389Q80 395 73 395H59Z"  />
<glyph unicode="u" horiz-adv-x="544" d="M415 -5Q390 -5 377 9T359 45H358Q339 19 307 4T232 -11Q193 -11 163 2T111 40T79 96T67 168V428Q67 456 82 471T123 487Q148 487 163 472T179 428V194Q179 147 200 118T268 89Q313 89 336 118T359 194V428Q359 456 374 471T415 487Q440 487 455 472T471 428V54Q471 26 456 11T415 -5Z"  />
<glyph unicode="v" horiz-adv-x="487" d="M243 -5Q216 -5 201 10T169 63L34 407Q31 415 30 421T29 434Q29 457 44 472T84 487Q122 487 136 447L245 155H247L352 447Q366 487 404 487Q428 487 443 472T458 434Q458 427 457 421T453 407L318 63Q302 25 287 10T243 -5Z"  />
<glyph unicode="w" horiz-adv-x="755" d="M527 -5Q503 -5 487 7T462 49L378 318H376L293 49Q284 20 268 8T229 -5Q206 -5 190 7T164 49L44 410Q40 421 40 433Q40 456 55 471T95 487Q135 487 149 440L234 154H236L319 437Q334 487 377 487Q418 487 434 437L524 154H526L606 440Q620 487 660 487Q684 487 699 472T715 433Q715 428 714 422T711 410L591 49Q582 20 566 8T527 -5Z"  />
<glyph unicode="x" horiz-adv-x="497" d="M401 -5Q373 -5 354 20L249 164H248L143 20Q124 -5 96 -5Q74 -5 60 9T46 44Q46 61 60 81L184 250L74 401Q60 420 60 438Q60 458 74 472T110 487Q138 487 157 461L248 336H249L340 461Q359 487 387 487Q409 487 422 473T436 438Q436 420 422 401L313 250L437 81Q451 61 451 44Q451 24 437 10T401 -5Z"  />
<glyph unicode="y" horiz-adv-x="488" d="M109 -180Q85 -180 71 -166T56 -130Q56 -109 70 -95T109 -80Q135 -79 151 -68T181 -20L195 19L36 408Q30 421 30 434Q30 457 46 472T86 487Q123 487 138 447L247 158H249L352 447Q366 487 404 487Q427 487 442 472T458 434Q458 423 453 408L276 -43Q260 -83 244 -109T210 -151T168 -173T116 -180H109Z"  />
<glyph unicode="z" horiz-adv-x="471" d="M86 0Q63 0 49 13T35 49Q35 66 44 82T70 118L292 382V384H100Q76 384 63 398T49 433Q49 454 62 468T100 482H384Q407 482 421 469T435 433Q435 416 427 400T400 363L181 100V98H384Q408 98 421 84T435 49Q435 28 422 14T384 0H86Z"  />
<glyph unicode="{" horiz-adv-x="346" d="M248 -84Q188 -84 159 -52T129 35V196Q129 235 119 253T84 280Q47 293 47 330Q47 367 84 380Q108 389 118 407T129 464V621Q129 676 158 708T248 740H274Q297 740 309 728T321 697Q321 657 278 653L267 652Q249 650 241 641T232 607V453Q232 397 216 371T163 331V329Q200 316 216 290T232 207V49Q232 25 240 16T267 4L278 3Q321 -1 321 -41Q321 -60 309 -72T274 -84H248Z"  />
<glyph unicode="|" horiz-adv-x="330" d="M165 -89Q144 -89 131 -76T118 -38V694Q118 718 131 731T165 745Q186 745 199 732T212 694V-38Q212 -62 199 -75T165 -89Z"  />
<glyph unicode="}" horiz-adv-x="346" d="M72 -84Q49 -84 37 -72T25 -41Q25 -1 68 3L79 4Q97 6 105 15T114 49V207Q114 263 130 289T183 329V331Q146 344 130 370T114 453V607Q114 631 106 640T79 652L68 653Q25 657 25 697Q25 716 37 728T72 740H98Q158 740 187 708T217 621V464Q217 425 227 407T262 380Q299 367 299 330Q299 293 262 280Q238 271 228 253T217 196V35Q217 -20 188 -52T98 -84H72Z"  />
<glyph unicode="~" horiz-adv-x="549" d="M416 320Q425 332 434 337T455 342Q472 342 483 332T495 303Q495 287 485 271Q465 240 433 220T362 200Q330 200 307 209T257 235Q236 248 221 254T188 261Q173 261 160 255T133 231Q116 209 94 209Q77 209 66 219T54 248Q54 264 64 280Q84 311 116 331T187 351Q219 351 242 342T292 316Q313 303 328 297T361 290Q376 290 389 296T416 320Z"  />
<glyph unicode="&#xA0;" horiz-adv-x="239" />
<glyph unicode="&#xA1;" horiz-adv-x="306" d="M153 288Q177 288 193 273T209 228V-148Q209 -176 193 -191T153 -207Q129 -207 113 -192T97 -148V228Q97 257 113 272T153 288ZM222 418Q222 389 202 369T153 349Q124 349 104 369T84 418Q84 447 104 467T153 487Q182 487 202 467T222 418Z"  />
<glyph unicode="&#xA2;" horiz-adv-x="549" d="M298 -105Q286 -105 279 -98T271 -76V-9Q204 -3 160 30T96 122Q81 167 81 241Q81 315 96 360Q115 419 159 452T271 491V556Q271 570 278 577T298 585Q310 585 317 578T325 556V492Q370 487 402 471T454 432Q465 420 469 410T474 388Q474 367 460 353T425 339Q412 339 401 345T379 363Q368 374 355 381T325 391V90Q342 93 355 100T379 119Q390 130 401 136T425 143Q446 143 460 129T474 94Q474 83 470 73T454 50Q434 27 402 11T325 -10V-76Q325 -90 318 -97T298 -105ZM205 152Q220 102 271 91V390Q220 379 205 330Q199 312 197 291T195 241Q195 213 197 192T205 152Z"  />
<glyph unicode="&#xA3;" horiz-adv-x="548" d="M130 0Q105 0 92 13T78 49Q78 64 84 77T108 111Q122 126 128 144T134 190V269Q134 275 128 275H107Q87 275 75 287T63 317Q63 335 75 347T107 359H128Q134 359 134 365V503Q134 594 181 642T311 691Q373 691 412 663T465 595Q469 583 469 571Q469 549 455 535T419 521Q385 521 370 552Q352 591 310 591Q246 591 246 516V365Q246 359 252 359H343Q363 359 375 347T387 317Q387 299 375 287T343 275H252Q246 275 246 269V202Q246 167 240 143T218 102V100H429Q453 100 467 86T481 50Q481 28 467 14T429 0H130Z"  />
<glyph unicode="&#xA4;" horiz-adv-x="549" d="M274 120Q213 120 166 149L128 111Q113 95 92 95Q72 95 59 108T45 142Q45 162 61 178L100 217Q72 264 72 323Q72 383 101 429L61 470Q45 486 45 506Q45 525 58 539T92 553Q113 553 128 537L167 497Q190 511 217 518T274 526Q304 526 331 519T381 497L421 537Q437 553 457 553Q478 553 491 539T505 506Q505 488 489 470L448 429Q477 383 477 323Q477 265 449 217L489 178Q505 160 505 142Q505 122 492 109T457 95Q437 95 421 111L382 149Q335 120 274 120ZM274 208Q323 208 354 241T386 323Q386 372 355 405T274 438Q225 438 194 405T163 323Q163 274 194 241T274 208Z"  />
<glyph unicode="&#xA5;" horiz-adv-x="549" d="M360 348V346H433Q453 346 464 335T475 307Q475 290 464 279T433 268H337Q331 268 331 262V221Q331 215 337 215H433Q453 215 464 204T475 176Q475 159 464 148T433 137H337Q331 137 331 131V54Q331 26 316 11T275 -5Q251 -5 235 10T219 54V131Q219 137 213 137H117Q97 137 86 148T75 176Q75 193 86 204T117 215H213Q219 215 219 221V262Q219 268 213 268H117Q97 268 86 279T75 307Q75 324 86 335T117 346H190V348L64 607Q58 620 58 634Q58 655 73 670T112 685Q146 685 163 649L275 394H278L389 649Q405 685 440 685Q464 685 478 670T492 634Q492 620 486 607L360 348Z"  />
<glyph unicode="&#xA6;" horiz-adv-x="330" d="M165 383Q144 383 131 396T118 434V694Q118 718 131 731T165 745Q187 745 199 732T212 694V434Q212 410 200 397T165 383ZM165 -89Q144 -89 131 -76T118 -38V223Q118 248 131 261T165 275Q187 275 199 262T212 223V-38Q212 -62 200 -75T165 -89Z"  />
<glyph unicode="&#xA7;" horiz-adv-x="579" d="M285 -191Q247 -191 217 -182T166 -156T131 -118T113 -74Q111 -64 111 -58Q111 -36 124 -24T160 -11Q193 -11 207 -48Q227 -101 285 -101Q321 -101 341 -83T361 -33Q361 4 336 26T245 65Q167 83 130 130T93 252Q93 305 117 347T187 409V410Q149 431 134 461T118 534Q118 567 130 595T166 645T221 678T292 691Q361 691 405 659T461 578Q463 570 463 562Q463 540 450 528T414 515Q398 515 387 524T369 551Q352 601 293 601Q259 601 241 583T222 534Q222 497 246 476T333 439Q486 401 486 253Q486 198 461 156T393 95V94Q429 74 447 45T465 -31Q465 -68 452 -97T416 -148T359 -180T285 -191ZM289 156Q331 156 356 180T382 252Q382 300 357 324T289 348Q247 348 222 324T197 252Q197 204 222 180T289 156Z"  />
<glyph unicode="&#xA8;" horiz-adv-x="444" d="M322 562Q296 562 279 580T261 623Q261 649 278 666T322 684Q347 684 364 667T382 623Q382 598 365 580T322 562ZM122 562Q96 562 79 580T61 623Q61 649 78 666T122 684Q147 684 164 667T182 623Q182 598 165 580T122 562Z"  />
<glyph unicode="&#xA9;" horiz-adv-x="826" d="M413 -11Q338 -11 274 15T163 89T89 201T62 340Q62 415 89 479T163 590T274 664T413 691Q488 691 552 665T663 591T737 479T764 340Q764 265 737 201T663 90T552 16T413 -11ZM413 65Q471 65 520 85T606 143T663 230T684 340Q684 399 664 449T607 536T521 594T413 615Q355 615 306 594T220 537T163 450T142 340Q142 281 162 231T219 143T305 86T413 65ZM421 143Q362 143 321 170T262 251Q257 266 254 286T251 340Q251 374 254 394T262 429Q280 482 321 509T421 537Q462 537 493 523T542 485Q551 471 551 458Q551 444 541 433T514 421Q495 421 480 435Q468 448 456 454T423 461Q365 461 347 408Q343 398 342 384T340 340Q340 310 341 296T347 272Q365 219 423 219Q443 219 455 225T480 245Q495 259 514 259Q531 259 541 248T551 222Q551 208 542 195Q525 172 494 158T421 143Z"  />
<glyph unicode="&#xAA;" horiz-adv-x="347" d="M317 452Q325 439 325 427Q325 410 314 399T284 388Q260 388 247 409L241 418H240Q227 405 206 396T151 387Q93 387 63 410T32 476Q32 524 65 546T159 568H212Q218 568 218 574V580Q218 599 205 609T159 619Q139 619 125 616T97 606Q88 602 80 602Q65 602 56 611T47 636Q47 645 51 653T66 667Q82 677 106 682T166 688Q236 688 268 659T301 575V502Q301 489 302 482T308 467L317 452ZM159 452Q218 452 218 491V505Q218 511 212 511H166Q137 511 125 504T112 480Q112 452 159 452Z"  />
<glyph unicode="&#xAB;" horiz-adv-x="550" d="M453 74Q442 74 434 78T419 89L283 226Q272 237 268 245T263 264Q263 275 267 283T283 302L419 439Q426 446 434 450T453 454Q470 454 482 443T494 413Q494 394 478 378L370 269Q365 264 370 259L478 150Q494 134 494 115Q494 96 482 85T453 74ZM226 74Q215 74 207 78T192 89L56 226Q45 237 41 245T36 264Q36 275 40 283T56 302L192 439Q199 446 207 450T226 454Q243 454 255 443T267 413Q267 394 251 378L143 269Q138 264 143 259L251 150Q267 134 267 115Q267 96 255 85T226 74Z"  />
<glyph unicode="&#xAC;" horiz-adv-x="549" d="M445 324Q467 324 480 311T493 276V142Q493 117 479 103T443 89Q422 89 408 103T394 142V222Q394 228 388 228H103Q79 228 66 241T52 276Q52 297 65 310T103 324H445Z"  />
<glyph unicode="&#xAD;" horiz-adv-x="385" d="M91 216Q66 216 52 229T38 266Q38 288 52 301T91 315H294Q319 315 333 302T347 266Q347 243 333 230T294 216H91Z"  />
<glyph unicode="&#xAE;" horiz-adv-x="447" d="M223 301Q182 301 148 316T87 356T47 417T32 493Q32 533 46 568T87 628T147 669T223 684Q263 684 298 669T359 629T399 568T414 493Q414 452 400 417T359 357T298 316T223 301ZM223 340Q255 340 282 351T330 383T361 432T373 493Q373 526 362 553T330 601T283 633T223 645Q191 645 164 634T116 602T85 554T73 493Q73 460 84 432T116 384T163 352T223 340ZM168 385Q144 385 144 411V577Q144 600 168 600H237Q273 600 292 583T312 535Q312 513 303 499T276 476L306 421Q310 414 310 406Q310 398 304 392T288 385Q272 385 265 402L228 469H195Q192 469 192 465V411Q192 399 186 392T168 385ZM234 511Q266 511 266 535Q266 559 234 559H195Q192 559 192 555V515Q192 511 195 511H234Z"  />
<glyph unicode="&#xAF;" horiz-adv-x="444" d="M329 668Q350 668 361 657T373 628Q373 610 362 599T329 587H114Q93 587 82 598T70 628Q70 645 81 656T114 668H329Z"  />
<glyph unicode="&#xB0;" horiz-adv-x="465" d="M233 395Q201 395 174 406T127 437T96 484T85 543Q85 574 96 601T127 648T174 679T233 691Q264 691 291 680T337 649T368 602T380 543Q380 511 369 484T338 438T291 407T233 395ZM233 460Q268 460 290 484T312 543Q312 579 290 602T233 626Q198 626 176 603T153 543Q153 508 175 484T233 460Z"  />
<glyph unicode="&#xB1;" horiz-adv-x="549" d="M274 145Q253 145 239 158T225 198V314Q225 320 219 320H103Q79 320 66 333T52 368Q52 389 65 402T103 416H219Q225 416 225 422V538Q225 564 239 577T274 591Q296 591 310 578T324 538V422Q324 416 330 416H446Q470 416 483 403T497 368Q497 347 484 334T446 320H330Q324 320 324 314V198Q324 172 310 159T274 145ZM103 0Q79 0 66 13T52 48Q52 69 65 82T103 96H446Q470 96 483 83T497 48Q497 27 484 14T446 0H103Z"  />
<glyph unicode="&#xB2;" horiz-adv-x="349" d="M76 430Q56 430 45 441T34 469Q34 483 43 496T66 526L194 666Q209 682 215 695T222 726Q222 746 209 758T174 771Q155 771 143 762T121 737Q107 711 82 711Q65 711 55 720T44 747Q44 752 45 757T48 768Q59 798 91 821T175 844Q235 844 271 812T308 726Q308 695 296 671T260 622L151 505V504H274Q294 504 304 494T314 468Q314 451 304 441T274 430H76Z"  />
<glyph unicode="&#xB3;" horiz-adv-x="349" d="M175 422Q129 422 95 439T47 488Q43 497 43 507Q43 522 53 533T82 544Q103 544 121 520Q129 509 142 502T173 495Q198 495 213 510T228 549Q228 572 213 587T168 602Q150 602 140 612T130 638Q130 654 140 664T168 674Q191 674 205 687T219 723Q219 745 206 758T169 771Q140 771 122 748Q113 737 104 732T84 726Q69 726 58 735T47 761Q47 771 51 780Q62 806 93 825T172 844Q235 844 270 812T305 730Q305 679 260 645V644Q278 636 296 612T314 548Q314 491 276 457T175 422Z"  />
<glyph unicode="&#xB4;" horiz-adv-x="444" d="M233 565Q219 545 196 545Q177 545 165 556T153 585Q153 602 164 617L213 691Q226 711 251 711Q268 711 281 700T295 670Q295 660 293 654T284 638L233 565Z"  />
<glyph unicode="&#xB5;" horiz-adv-x="550" d="M185 -126Q185 -154 170 -169T129 -185Q104 -185 89 -170T73 -126V428Q73 456 88 471T129 487Q154 487 169 472T185 428V194Q185 147 206 118T274 89Q319 89 342 118T365 194V428Q365 456 380 471T421 487Q446 487 461 472T477 428V54Q477 26 462 11T421 -5Q396 -5 383 9T365 45H364Q347 22 322 6T258 -11Q232 -11 215 -3T186 19H185V-126Z"  />
<glyph unicode="&#xB6;" horiz-adv-x="634" d="M450 580Q450 586 444 586H373Q367 586 367 580V-134Q367 -157 354 -171T318 -185Q296 -185 283 -171T270 -134V258Q225 261 189 278T126 323T86 389T72 469Q72 512 87 550T130 618T201 663T297 680H499Q522 680 534 668T547 632V-134Q547 -157 534 -171T498 -185Q476 -185 463 -171T450 -134V580Z"  />
<glyph unicode="&#xB7;" horiz-adv-x="248" d="M53 265Q53 294 74 315T124 336Q153 336 174 315T195 265Q195 236 174 215T124 194Q95 194 74 215T53 265Z"  />
<glyph unicode="&#xB8;" horiz-adv-x="444" d="M242 -137Q237 -154 225 -162T199 -170Q181 -170 168 -159T154 -128Q154 -123 155 -117T158 -106L199 0Q203 10 212 10H283Q293 10 290 0L242 -137Z"  />
<glyph unicode="&#xB9;" horiz-adv-x="349" d="M200 425Q181 425 169 437T157 472V735H155L123 714Q110 706 98 706Q81 706 71 717T61 745Q61 767 84 783L137 819Q150 828 163 834T193 841Q216 841 229 828T243 790V472Q243 450 231 438T200 425Z"  />
<glyph unicode="&#xBA;" horiz-adv-x="356" d="M324 536Q324 496 315 471Q286 384 178 384Q70 384 41 471Q32 496 32 536Q32 575 41 601Q70 688 178 688Q286 688 315 601Q324 575 324 536ZM232 536Q232 549 231 558T227 576Q216 609 178 609Q139 609 129 576Q127 568 126 559T124 536Q124 523 125 514T129 496Q139 463 178 463Q216 463 227 496Q229 504 230 513T232 536Z"  />
<glyph unicode="&#xBB;" horiz-adv-x="550" d="M324 74Q307 74 295 85T283 115Q283 134 299 150L407 259Q412 264 407 269L299 378Q283 394 283 413Q283 432 295 443T324 454Q335 454 343 450T358 439L494 302Q505 291 509 283T514 264Q514 253 510 245T494 226L358 89Q351 82 343 78T324 74ZM97 74Q80 74 68 85T56 115Q56 134 72 150L180 259Q185 264 180 269L72 378Q56 394 56 413Q56 432 68 443T97 454Q108 454 116 450T131 439L267 302Q278 291 282 283T287 264Q287 253 283 245T267 226L131 89Q124 82 116 78T97 74Z"  />
<glyph unicode="&#xBC;" horiz-adv-x="858" d="M215 269Q196 269 184 281T172 316V579H170L138 558Q125 550 113 550Q96 550 86 561T76 589Q76 611 99 627L152 663Q165 672 178 678T208 685Q231 685 244 672T258 634V316Q258 294 246 282T215 269ZM697 -3Q679 -3 667 8T655 40V58Q655 64 649 64H513Q494 64 483 74T472 101Q472 112 476 125T489 157L595 384Q608 413 635 413Q652 413 663 403T675 374Q675 369 674 363T670 350L568 139V138H649Q655 138 655 144V193Q655 214 667 225T697 237Q714 237 725 226T737 193V144Q737 138 743 138H750Q768 138 778 128T788 101Q788 84 778 74T750 64H743Q737 64 737 58V40Q737 20 726 9T697 -3ZM237 -16Q221 -16 211 -6T201 20Q201 32 207 43L571 673Q584 695 607 695Q623 695 633 685T643 659Q643 648 636 636L272 7Q258 -16 237 -16Z"  />
<glyph unicode="&#xBD;" horiz-adv-x="891" d="M215 269Q196 269 184 281T172 316V579H170L138 558Q125 550 113 550Q96 550 86 561T76 589Q76 611 99 627L152 663Q165 672 178 678T208 685Q231 685 244 672T258 634V316Q258 294 246 282T215 269ZM573 2Q553 2 542 13T531 41Q531 55 540 68T563 98L691 238Q706 254 712 267T719 298Q719 318 706 330T671 343Q652 343 640 334T618 309Q604 283 579 283Q562 283 552 292T541 319Q541 324 542 329T545 340Q556 370 588 393T672 416Q732 416 768 384T805 298Q805 267 793 243T757 194L648 77V76H771Q791 76 801 66T811 40Q811 23 801 13T771 2H573ZM237 -16Q221 -16 211 -6T201 20Q201 32 207 43L571 673Q584 695 607 695Q623 695 633 685T643 659Q643 648 636 636L272 7Q258 -16 237 -16Z"  />
<glyph unicode="&#xBE;" horiz-adv-x="927" d="M751 -3Q733 -3 721 8T709 40V58Q709 64 703 64H567Q548 64 537 74T526 101Q526 112 530 125T543 157L649 384Q662 413 689 413Q706 413 717 403T729 374Q729 369 728 363T724 350L622 139V138H703Q709 138 709 144V193Q709 214 721 225T751 237Q768 237 779 226T791 193V144Q791 138 797 138H804Q822 138 832 128T842 101Q842 84 832 74T804 64H797Q791 64 791 58V40Q791 20 780 9T751 -3ZM294 -16Q278 -16 268 -6T258 20Q258 32 264 43L628 673Q641 695 664 695Q680 695 690 685T700 659Q700 648 693 636L329 7Q315 -16 294 -16ZM225 266Q179 266 145 283T97 332Q93 341 93 351Q93 366 103 377T132 388Q153 388 171 364Q179 353 192 346T223 339Q248 339 263 354T278 393Q278 416 263 431T218 446Q200 446 190 456T180 482Q180 498 190 508T218 518Q241 518 255 531T269 567Q269 589 256 602T219 615Q190 615 172 592Q163 581 154 576T134 570Q119 570 108 579T97 605Q97 615 101 624Q112 650 143 669T222 688Q285 688 320 656T355 574Q355 523 310 489V488Q328 480 346 456T364 392Q364 335 326 301T225 266Z"  />
<glyph unicode="&#xBF;" horiz-adv-x="464" d="M240 292Q263 292 279 278T295 237V230Q295 198 287 175T255 124L200 58Q174 27 166 7T158 -37Q158 -68 178 -90T235 -113Q268 -113 289 -97T321 -51Q329 -31 342 -22T373 -12Q396 -12 410 -25T425 -61Q425 -66 424 -73T421 -87Q404 -143 356 -178T232 -213Q189 -213 155 -200T96 -163T58 -108T44 -38Q44 1 57 33T99 100L159 171Q174 189 179 201T185 231V237Q185 263 201 277T240 292ZM307 418Q307 389 287 369T238 349Q210 349 190 369T169 418Q169 447 189 467T238 487Q267 487 287 467T307 418Z"  />
<glyph unicode="&#xC0;" horiz-adv-x="617" d="M29 50Q29 56 30 61T33 72L231 618Q242 650 260 667T309 685Q340 685 358 668T388 618L584 72Q586 67 587 62T588 50Q588 24 571 10T531 -5Q511 -5 497 5T475 36L438 142H178L142 36Q135 16 121 6T86 -5Q63 -5 46 9T29 50ZM402 247L310 512H307L215 247H402ZM324 822Q338 805 338 786Q338 769 326 757T297 745Q277 745 259 764L200 827Q186 842 186 862Q186 882 199 893T231 905Q251 905 266 888L324 822Z"  />
<glyph unicode="&#xC1;" horiz-adv-x="617" d="M29 50Q29 56 30 61T33 72L231 618Q242 650 260 667T309 685Q340 685 358 668T388 618L584 72Q586 67 587 62T588 50Q588 24 571 10T531 -5Q511 -5 497 5T475 36L438 142H178L142 36Q135 16 121 6T86 -5Q63 -5 46 9T29 50ZM402 247L310 512H307L215 247H402ZM356 888Q371 905 391 905Q409 905 422 894T436 862Q436 842 422 827L363 764Q345 745 325 745Q308 745 296 757T284 786Q284 805 298 822L356 888Z"  />
<glyph unicode="&#xC2;" horiz-adv-x="617" d="M29 50Q29 56 30 61T33 72L231 618Q242 650 260 667T309 685Q340 685 358 668T388 618L584 72Q586 67 587 62T588 50Q588 24 571 10T531 -5Q511 -5 497 5T475 36L438 142H178L142 36Q135 16 121 6T86 -5Q63 -5 46 9T29 50ZM402 247L310 512H307L215 247H402ZM405 740Q388 740 373 755L309 823H307L243 755Q228 740 211 740Q197 740 187 749T177 773Q177 787 189 802L253 878Q266 893 278 901T308 910Q326 910 338 902T363 878L427 802Q439 787 439 773Q439 759 429 750T405 740Z"  />
<glyph unicode="&#xC3;" horiz-adv-x="617" d="M29 50Q29 56 30 61T33 72L231 618Q242 650 260 667T309 685Q340 685 358 668T388 618L584 72Q586 67 587 62T588 50Q588 24 571 10T531 -5Q511 -5 497 5T475 36L438 142H178L142 36Q135 16 121 6T86 -5Q63 -5 46 9T29 50ZM402 247L310 512H307L215 247H402ZM365 758Q345 758 331 764T299 780Q282 791 274 794T256 798Q240 798 222 779Q207 764 190 764Q174 764 164 773T154 799Q154 814 165 830Q185 857 206 868T251 880Q271 880 285 874T317 858Q334 847 342 844T360 840Q376 840 394 859Q409 874 426 874Q442 874 452 865T462 839Q462 824 451 808Q431 781 410 770T365 758Z"  />
<glyph unicode="&#xC4;" horiz-adv-x="617" d="M29 50Q29 56 30 61T33 72L231 618Q242 650 260 667T309 685Q340 685 358 668T388 618L584 72Q586 67 587 62T588 50Q588 24 571 10T531 -5Q511 -5 497 5T475 36L438 142H178L142 36Q135 16 121 6T86 -5Q63 -5 46 9T29 50ZM402 247L310 512H307L215 247H402ZM409 760Q383 760 366 777T348 821Q348 846 365 863T409 881Q434 881 451 864T469 821Q469 795 452 778T409 760ZM209 760Q183 760 166 777T148 821Q148 846 165 863T209 881Q234 881 251 864T269 821Q269 795 252 778T209 760Z"  />
<glyph unicode="&#xC5;" horiz-adv-x="617" d="M29 50Q29 56 30 61T33 72L231 618Q242 650 260 667T309 685Q340 685 358 668T388 618L584 72Q586 67 587 62T588 50Q588 24 571 10T531 -5Q511 -5 497 5T475 36L438 142H178L142 36Q135 16 121 6T86 -5Q63 -5 46 9T29 50ZM402 247L310 512H307L215 247H402ZM308 721Q264 721 235 749T206 821Q206 865 235 893T308 921Q352 921 381 893T410 821Q410 777 381 749T308 721ZM308 770Q330 770 343 784T357 821Q357 844 344 858T308 872Q286 872 273 858T259 821Q259 798 272 784T308 770Z"  />
<glyph unicode="&#xC6;" horiz-adv-x="922" d="M479 0Q455 0 441 14T427 52V136Q427 142 421 142H200L144 32Q125 -5 89 -5Q66 -5 49 10T31 51Q31 66 40 84L326 627Q340 655 359 667T411 680H819Q847 680 863 665T879 627Q879 604 863 589T819 574H551Q545 574 545 568V402Q545 396 551 396H769Q797 396 813 381T829 343Q829 320 813 305T769 290H551Q545 290 545 284V112Q545 106 551 106H819Q847 106 863 91T879 53Q879 30 863 15T819 0H479ZM254 247H421Q427 247 427 253V575H424L254 247Z"  />
<glyph unicode="&#xC7;" horiz-adv-x="567" d="M305 -137Q300 -154 288 -162T262 -170Q244 -170 231 -159T217 -128Q217 -123 218 -117T221 -106L259 -7Q190 4 143 44T74 153Q69 171 65 188T59 226T56 274T55 340Q55 378 56 405T59 454T65 492T74 527Q100 608 161 649T310 691Q382 691 435 661T515 580Q525 562 525 545Q525 522 510 507T471 492Q456 492 444 499T419 524Q399 555 374 570T310 585Q261 585 232 562T188 496Q185 485 183 473T179 444T176 401T175 340Q175 304 176 279T178 237T182 207T188 184Q202 142 231 119T310 95Q348 95 373 110T419 156Q431 173 443 180T471 188Q494 188 509 173T525 134Q525 118 515 100Q493 56 450 28T350 -8L305 -137Z"  />
<glyph unicode="&#xC8;" horiz-adv-x="570" d="M75 627Q75 651 89 665T128 680H467Q495 680 511 665T527 627Q527 604 511 589T467 574H199Q193 574 193 568V402Q193 396 199 396H417Q445 396 461 381T477 343Q477 320 461 305T417 290H199Q193 290 193 284V112Q193 106 199 106H467Q495 106 511 91T527 53Q527 30 511 15T467 0H128Q103 0 89 14T75 53V627ZM325 822Q339 805 339 786Q339 769 327 757T298 745Q278 745 260 764L201 827Q187 842 187 862Q187 882 200 893T232 905Q252 905 267 888L325 822Z"  />
<glyph unicode="&#xC9;" horiz-adv-x="570" d="M75 627Q75 651 89 665T128 680H467Q495 680 511 665T527 627Q527 604 511 589T467 574H199Q193 574 193 568V402Q193 396 199 396H417Q445 396 461 381T477 343Q477 320 461 305T417 290H199Q193 290 193 284V112Q193 106 199 106H467Q495 106 511 91T527 53Q527 30 511 15T467 0H128Q103 0 89 14T75 53V627ZM313 888Q328 905 348 905Q366 905 379 894T393 862Q393 842 379 827L320 764Q302 745 282 745Q265 745 253 757T241 786Q241 805 255 822L313 888Z"  />
<glyph unicode="&#xCA;" horiz-adv-x="570" d="M75 627Q75 651 89 665T128 680H467Q495 680 511 665T527 627Q527 604 511 589T467 574H199Q193 574 193 568V402Q193 396 199 396H417Q445 396 461 381T477 343Q477 320 461 305T417 290H199Q193 290 193 284V112Q193 106 199 106H467Q495 106 511 91T527 53Q527 30 511 15T467 0H128Q103 0 89 14T75 53V627ZM396 740Q379 740 364 755L300 823H298L234 755Q219 740 202 740Q188 740 178 749T168 773Q168 787 180 802L244 878Q257 893 269 901T299 910Q317 910 329 902T354 878L418 802Q430 787 430 773Q430 759 420 750T396 740Z"  />
<glyph unicode="&#xCB;" horiz-adv-x="570" d="M75 627Q75 651 89 665T128 680H467Q495 680 511 665T527 627Q527 604 511 589T467 574H199Q193 574 193 568V402Q193 396 199 396H417Q445 396 461 381T477 343Q477 320 461 305T417 290H199Q193 290 193 284V112Q193 106 199 106H467Q495 106 511 91T527 53Q527 30 511 15T467 0H128Q103 0 89 14T75 53V627ZM397 760Q371 760 354 777T336 821Q336 846 353 863T397 881Q422 881 439 864T457 821Q457 795 440 778T397 760ZM197 760Q171 760 154 777T136 821Q136 846 153 863T197 881Q222 881 239 864T257 821Q257 795 240 778T197 760Z"  />
<glyph unicode="&#xCC;" horiz-adv-x="268" d="M75 623Q75 652 91 668T134 685Q160 685 176 669T193 623V57Q193 28 177 12T134 -5Q108 -5 92 11T75 57V623ZM157 822Q171 805 171 786Q171 769 159 757T130 745Q110 745 92 764L33 827Q19 842 19 862Q19 882 32 893T64 905Q84 905 99 888L157 822Z"  />
<glyph unicode="&#xCD;" horiz-adv-x="268" d="M75 623Q75 652 91 668T134 685Q160 685 176 669T193 623V57Q193 28 177 12T134 -5Q108 -5 92 11T75 57V623ZM176 888Q191 905 211 905Q229 905 242 894T256 862Q256 842 242 827L183 764Q165 745 145 745Q128 745 116 757T104 786Q104 805 118 822L176 888Z"  />
<glyph unicode="&#xCE;" horiz-adv-x="268" d="M75 623Q75 652 91 668T134 685Q160 685 176 669T193 623V57Q193 28 177 12T134 -5Q108 -5 92 11T75 57V623ZM233 740Q216 740 201 755L137 823H135L71 755Q56 740 39 740Q25 740 15 749T5 773Q5 787 17 802L81 878Q94 893 106 901T136 910Q154 910 166 902T191 878L255 802Q267 787 267 773Q267 759 257 750T233 740Z"  />
<glyph unicode="&#xCF;" horiz-adv-x="268" d="M75 623Q75 652 91 668T134 685Q160 685 176 669T193 623V57Q193 28 177 12T134 -5Q108 -5 92 11T75 57V623ZM237 760Q211 760 194 777T176 821Q176 846 193 863T237 881Q262 881 279 864T297 821Q297 795 280 778T237 760ZM37 760Q11 760 -6 777T-24 821Q-24 846 -7 863T37 881Q62 881 79 864T97 821Q97 795 80 778T37 760Z"  />
<glyph unicode="&#xD0;" horiz-adv-x="625" d="M60 298Q37 298 25 310T13 343Q13 363 25 375T60 388H69Q75 388 75 394V627Q75 651 89 665T128 680H294Q398 680 462 643T552 524Q557 508 560 491T566 453T570 404T572 340Q572 304 571 277T567 228T561 189T552 156Q526 75 462 38T294 0H128Q103 0 89 14T75 52V292Q75 298 69 298H60ZM199 298Q193 298 193 292V112Q193 106 199 106H288Q348 106 385 127T439 197Q445 218 448 250T452 340Q452 397 449 429T439 483Q423 531 386 552T288 574H199Q193 574 193 568V394Q193 388 199 388H268Q291 388 303 376T315 343Q315 323 303 311T268 298H199Z"  />
<glyph unicode="&#xD1;" horiz-adv-x="657" d="M75 614Q75 647 93 666T142 685Q168 685 185 671T220 627L470 203H473V627Q473 655 488 670T528 685Q551 685 566 670T582 627V66Q582 33 564 14T516 -5Q490 -5 472 9T437 53L188 477H184V53Q184 25 169 10T130 -5Q106 -5 91 10T75 53V614ZM387 758Q367 758 353 764T321 780Q304 791 296 794T278 798Q262 798 244 779Q229 764 212 764Q196 764 186 773T176 799Q176 814 187 830Q207 857 228 868T273 880Q293 880 307 874T339 858Q356 847 364 844T382 840Q398 840 416 859Q431 874 448 874Q464 874 474 865T484 839Q484 824 473 808Q453 781 432 770T387 758Z"  />
<glyph unicode="&#xD2;" horiz-adv-x="627" d="M55 340Q55 377 56 404T59 452T65 492T75 528Q101 609 163 650T313 691Q402 691 464 650T552 528Q558 510 562 492T568 453T571 404T572 340Q572 303 571 276T568 228T562 188T552 152Q526 71 464 30T313 -11Q225 -11 163 30T75 152Q69 170 65 188T59 227T56 276T55 340ZM452 340Q452 374 451 398T449 441T445 472T438 496Q424 538 394 561T313 585Q263 585 233 562T189 496Q185 485 183 472T179 441T176 399T175 340Q175 306 176 282T178 239T182 208T189 184Q203 142 233 119T313 95Q364 95 394 118T438 184Q442 195 444 208T448 239T451 281T452 340ZM345 822Q359 805 359 786Q359 769 347 757T318 745Q298 745 280 764L221 827Q207 842 207 862Q207 882 220 893T252 905Q272 905 287 888L345 822Z"  />
<glyph unicode="&#xD3;" horiz-adv-x="627" d="M55 340Q55 377 56 404T59 452T65 492T75 528Q101 609 163 650T313 691Q402 691 464 650T552 528Q558 510 562 492T568 453T571 404T572 340Q572 303 571 276T568 228T562 188T552 152Q526 71 464 30T313 -11Q225 -11 163 30T75 152Q69 170 65 188T59 227T56 276T55 340ZM452 340Q452 374 451 398T449 441T445 472T438 496Q424 538 394 561T313 585Q263 585 233 562T189 496Q185 485 183 472T179 441T176 399T175 340Q175 306 176 282T178 239T182 208T189 184Q203 142 233 119T313 95Q364 95 394 118T438 184Q442 195 444 208T448 239T451 281T452 340ZM339 888Q354 905 374 905Q392 905 405 894T419 862Q419 842 405 827L346 764Q328 745 308 745Q291 745 279 757T267 786Q267 805 281 822L339 888Z"  />
<glyph unicode="&#xD4;" horiz-adv-x="627" d="M55 340Q55 377 56 404T59 452T65 492T75 528Q101 609 163 650T313 691Q402 691 464 650T552 528Q558 510 562 492T568 453T571 404T572 340Q572 303 571 276T568 228T562 188T552 152Q526 71 464 30T313 -11Q225 -11 163 30T75 152Q69 170 65 188T59 227T56 276T55 340ZM452 340Q452 374 451 398T449 441T445 472T438 496Q424 538 394 561T313 585Q263 585 233 562T189 496Q185 485 183 472T179 441T176 399T175 340Q175 306 176 282T178 239T182 208T189 184Q203 142 233 119T313 95Q364 95 394 118T438 184Q442 195 444 208T448 239T451 281T452 340ZM410 740Q393 740 378 755L314 823H312L248 755Q233 740 216 740Q202 740 192 749T182 773Q182 787 194 802L258 878Q271 893 283 901T313 910Q331 910 343 902T368 878L432 802Q444 787 444 773Q444 759 434 750T410 740Z"  />
<glyph unicode="&#xD5;" horiz-adv-x="627" d="M55 340Q55 377 56 404T59 452T65 492T75 528Q101 609 163 650T313 691Q402 691 464 650T552 528Q558 510 562 492T568 453T571 404T572 340Q572 303 571 276T568 228T562 188T552 152Q526 71 464 30T313 -11Q225 -11 163 30T75 152Q69 170 65 188T59 227T56 276T55 340ZM452 340Q452 374 451 398T449 441T445 472T438 496Q424 538 394 561T313 585Q263 585 233 562T189 496Q185 485 183 472T179 441T176 399T175 340Q175 306 176 282T178 239T182 208T189 184Q203 142 233 119T313 95Q364 95 394 118T438 184Q442 195 444 208T448 239T451 281T452 340ZM368 758Q348 758 334 764T302 780Q285 791 277 794T259 798Q243 798 225 779Q210 764 193 764Q177 764 167 773T157 799Q157 814 168 830Q188 857 209 868T254 880Q274 880 288 874T320 858Q337 847 345 844T363 840Q379 840 397 859Q412 874 429 874Q445 874 455 865T465 839Q465 824 454 808Q434 781 413 770T368 758Z"  />
<glyph unicode="&#xD6;" horiz-adv-x="627" d="M55 340Q55 377 56 404T59 452T65 492T75 528Q101 609 163 650T313 691Q402 691 464 650T552 528Q558 510 562 492T568 453T571 404T572 340Q572 303 571 276T568 228T562 188T552 152Q526 71 464 30T313 -11Q225 -11 163 30T75 152Q69 170 65 188T59 227T56 276T55 340ZM452 340Q452 374 451 398T449 441T445 472T438 496Q424 538 394 561T313 585Q263 585 233 562T189 496Q185 485 183 472T179 441T176 399T175 340Q175 306 176 282T178 239T182 208T189 184Q203 142 233 119T313 95Q364 95 394 118T438 184Q442 195 444 208T448 239T451 281T452 340ZM414 760Q388 760 371 777T353 821Q353 846 370 863T414 881Q439 881 456 864T474 821Q474 795 457 778T414 760ZM214 760Q188 760 171 777T153 821Q153 846 170 863T214 881Q239 881 256 864T274 821Q274 795 257 778T214 760Z"  />
<glyph unicode="&#xD7;" horiz-adv-x="549" d="M278 206Q274 210 270 206L176 112Q158 94 138 94Q117 94 105 107T92 140Q92 149 96 159T110 178L204 272Q208 276 204 280L110 375Q100 384 96 394T92 413Q92 432 104 445T138 459Q158 459 176 441L270 346Q274 342 278 346L373 440Q391 458 411 458Q432 458 444 445T457 412Q457 403 453 393T439 374L345 280Q341 276 345 272L439 178Q457 160 457 140Q457 121 445 108T411 94Q391 94 373 112L278 206Z"  />
<glyph unicode="&#xD8;" horiz-adv-x="627" d="M135 -16Q122 -35 104 -35Q90 -35 81 -27T71 -3Q71 8 78 19L113 77Q88 110 75 152Q69 170 65 188T59 227T56 276T55 340Q55 377 56 404T59 452T65 492T75 528Q101 609 163 650T313 691Q398 691 460 651L487 696Q499 716 517 716Q531 716 540 707T550 683Q550 678 549 673T544 661L511 606Q537 572 552 528Q558 510 562 492T568 453T571 404T572 340Q572 303 571 276T568 228T562 188T552 152Q526 71 464 30T313 -11Q225 -11 163 30L135 -16ZM174 340Q174 278 176 245T185 191L401 557Q366 586 313 586Q263 586 233 563T188 497Q184 486 182 473T178 442T175 399T174 340ZM453 340Q453 373 452 396T450 438T446 469T440 493L223 125Q257 94 313 94Q364 94 394 117T439 183Q443 194 445 207T449 238T452 281T453 340Z"  />
<glyph unicode="&#xD9;" horiz-adv-x="643" d="M321 -11Q267 -11 222 6T143 55T90 133T71 239V623Q71 652 87 668T130 685Q156 685 172 669T189 623V241Q189 170 226 133T321 95Q380 95 417 132T454 241V623Q454 652 470 668T513 685Q539 685 555 669T572 623V239Q572 180 553 134T501 55T421 6T321 -11ZM349 822Q363 805 363 786Q363 769 351 757T322 745Q302 745 284 764L225 827Q211 842 211 862Q211 882 224 893T256 905Q276 905 291 888L349 822Z"  />
<glyph unicode="&#xDA;" horiz-adv-x="643" d="M321 -11Q267 -11 222 6T143 55T90 133T71 239V623Q71 652 87 668T130 685Q156 685 172 669T189 623V241Q189 170 226 133T321 95Q380 95 417 132T454 241V623Q454 652 470 668T513 685Q539 685 555 669T572 623V239Q572 180 553 134T501 55T421 6T321 -11ZM357 888Q372 905 392 905Q410 905 423 894T437 862Q437 842 423 827L364 764Q346 745 326 745Q309 745 297 757T285 786Q285 805 299 822L357 888Z"  />
<glyph unicode="&#xDB;" horiz-adv-x="643" d="M321 -11Q267 -11 222 6T143 55T90 133T71 239V623Q71 652 87 668T130 685Q156 685 172 669T189 623V241Q189 170 226 133T321 95Q380 95 417 132T454 241V623Q454 652 470 668T513 685Q539 685 555 669T572 623V239Q572 180 553 134T501 55T421 6T321 -11ZM418 740Q401 740 386 755L322 823H320L256 755Q241 740 224 740Q210 740 200 749T190 773Q190 787 202 802L266 878Q279 893 291 901T321 910Q339 910 351 902T376 878L440 802Q452 787 452 773Q452 759 442 750T418 740Z"  />
<glyph unicode="&#xDC;" horiz-adv-x="643" d="M321 -11Q267 -11 222 6T143 55T90 133T71 239V623Q71 652 87 668T130 685Q156 685 172 669T189 623V241Q189 170 226 133T321 95Q380 95 417 132T454 241V623Q454 652 470 668T513 685Q539 685 555 669T572 623V239Q572 180 553 134T501 55T421 6T321 -11ZM422 760Q396 760 379 777T361 821Q361 846 378 863T422 881Q447 881 464 864T482 821Q482 795 465 778T422 760ZM222 760Q196 760 179 777T161 821Q161 846 178 863T222 881Q247 881 264 864T282 821Q282 795 265 778T222 760Z"  />
<glyph unicode="&#xDD;" horiz-adv-x="536" d="M268 -5Q242 -5 226 11T209 57V278L29 600Q20 616 20 632Q20 655 36 670T76 685Q109 685 128 651L268 395H271L410 651Q428 685 462 685Q486 685 501 670T516 632Q516 616 507 600L327 278V57Q327 28 311 12T268 -5ZM304 888Q319 905 339 905Q357 905 370 894T384 862Q384 842 370 827L311 764Q293 745 273 745Q256 745 244 757T232 786Q232 805 246 822L304 888Z"  />
<glyph unicode="&#xDE;" horiz-adv-x="598" d="M199 143Q193 143 193 137V57Q193 28 177 12T134 -5Q108 -5 92 11T75 57V623Q75 652 91 668T134 685Q160 685 176 669T193 623V572Q193 566 199 566H340Q389 566 430 551T501 508T547 441T564 355Q564 307 548 268T502 202T431 159T340 143H199ZM333 250Q386 250 416 278T446 355Q446 402 416 431T333 460H199Q193 460 193 454V256Q193 250 199 250H333Z"  />
<glyph unicode="&#xDF;" horiz-adv-x="553" d="M308 364Q284 364 270 378T256 414Q256 436 270 449T308 464Q340 465 357 479T374 527Q374 592 284 592Q230 592 208 569T185 491V54Q185 26 170 11T129 -5Q105 -5 89 10T73 54V488Q73 585 122 638T283 691Q384 691 435 649T486 530Q486 490 470 462T425 417V415Q464 396 481 344Q487 325 490 298T494 224Q494 176 491 146T481 97Q464 46 422 22T305 -3Q281 -3 269 11T256 46Q256 66 269 79T305 95Q334 98 351 108T375 140Q378 149 380 167T382 225Q382 268 379 288T373 319Q365 344 348 354T308 364Z"  />
<glyph unicode="&#xE0;" horiz-adv-x="523" d="M479 80Q488 63 488 47Q488 24 472 10T432 -5Q401 -5 385 18L369 42H368Q347 17 311 3T226 -11Q140 -11 96 27T51 135Q51 213 102 251T243 289H342Q348 289 348 295V307Q348 349 323 372T240 396Q214 396 191 390T152 376Q137 370 123 370Q103 370 90 382T77 416Q77 428 83 440T105 460Q128 474 165 483T252 493Q355 493 404 445T454 306V154Q454 135 456 126T464 106L479 80ZM242 80Q291 80 319 99T348 156V199Q348 205 342 205H262Q206 205 182 189T158 140Q158 80 242 80ZM277 545Q254 545 240 565L189 638Q183 647 181 653T178 670Q178 688 191 699T222 711Q246 711 260 691L309 617Q320 600 320 585Q320 567 308 556T277 545Z"  />
<glyph unicode="&#xE1;" horiz-adv-x="523" d="M479 80Q488 63 488 47Q488 24 472 10T432 -5Q401 -5 385 18L369 42H368Q347 17 311 3T226 -11Q140 -11 96 27T51 135Q51 213 102 251T243 289H342Q348 289 348 295V307Q348 349 323 372T240 396Q214 396 191 390T152 376Q137 370 123 370Q103 370 90 382T77 416Q77 428 83 440T105 460Q128 474 165 483T252 493Q355 493 404 445T454 306V154Q454 135 456 126T464 106L479 80ZM242 80Q291 80 319 99T348 156V199Q348 205 342 205H262Q206 205 182 189T158 140Q158 80 242 80ZM301 565Q287 545 264 545Q245 545 233 556T221 585Q221 602 232 617L281 691Q294 711 319 711Q336 711 349 700T363 670Q363 660 361 654T352 638L301 565Z"  />
<glyph unicode="&#xE2;" horiz-adv-x="523" d="M479 80Q488 63 488 47Q488 24 472 10T432 -5Q401 -5 385 18L369 42H368Q347 17 311 3T226 -11Q140 -11 96 27T51 135Q51 213 102 251T243 289H342Q348 289 348 295V307Q348 349 323 372T240 396Q214 396 191 390T152 376Q137 370 123 370Q103 370 90 382T77 416Q77 428 83 440T105 460Q128 474 165 483T252 493Q355 493 404 445T454 306V154Q454 135 456 126T464 106L479 80ZM242 80Q291 80 319 99T348 156V199Q348 205 342 205H262Q206 205 182 189T158 140Q158 80 242 80ZM358 543Q341 543 326 558L262 626H260L196 558Q181 543 164 543Q150 543 140 552T130 576Q130 590 142 605L206 681Q219 696 231 704T261 713Q279 713 291 705T316 681L380 605Q392 590 392 576Q392 562 382 553T358 543Z"  />
<glyph unicode="&#xE3;" horiz-adv-x="523" d="M479 80Q488 63 488 47Q488 24 472 10T432 -5Q401 -5 385 18L369 42H368Q347 17 311 3T226 -11Q140 -11 96 27T51 135Q51 213 102 251T243 289H342Q348 289 348 295V307Q348 349 323 372T240 396Q214 396 191 390T152 376Q137 370 123 370Q103 370 90 382T77 416Q77 428 83 440T105 460Q128 474 165 483T252 493Q355 493 404 445T454 306V154Q454 135 456 126T464 106L479 80ZM242 80Q291 80 319 99T348 156V199Q348 205 342 205H262Q206 205 182 189T158 140Q158 80 242 80ZM318 566Q298 566 284 572T252 588Q235 599 227 602T209 606Q193 606 175 587Q160 572 143 572Q127 572 117 581T107 607Q107 622 118 638Q138 665 159 676T204 688Q224 688 238 682T270 666Q287 655 295 652T313 648Q329 648 347 667Q362 682 379 682Q395 682 405 673T415 647Q415 632 404 616Q384 589 363 578T318 566Z"  />
<glyph unicode="&#xE4;" horiz-adv-x="523" d="M479 80Q488 63 488 47Q488 24 472 10T432 -5Q401 -5 385 18L369 42H368Q347 17 311 3T226 -11Q140 -11 96 27T51 135Q51 213 102 251T243 289H342Q348 289 348 295V307Q348 349 323 372T240 396Q214 396 191 390T152 376Q137 370 123 370Q103 370 90 382T77 416Q77 428 83 440T105 460Q128 474 165 483T252 493Q355 493 404 445T454 306V154Q454 135 456 126T464 106L479 80ZM242 80Q291 80 319 99T348 156V199Q348 205 342 205H262Q206 205 182 189T158 140Q158 80 242 80ZM361 562Q335 562 318 580T300 623Q300 649 317 666T361 684Q386 684 403 667T421 623Q421 598 404 580T361 562ZM161 562Q135 562 118 580T100 623Q100 649 117 666T161 684Q186 684 203 667T221 623Q221 598 204 580T161 562Z"  />
<glyph unicode="&#xE5;" horiz-adv-x="523" d="M479 80Q488 63 488 47Q488 24 472 10T432 -5Q401 -5 385 18L369 42H368Q347 17 311 3T226 -11Q140 -11 96 27T51 135Q51 213 102 251T243 289H342Q348 289 348 295V307Q348 349 323 372T240 396Q214 396 191 390T152 376Q137 370 123 370Q103 370 90 382T77 416Q77 428 83 440T105 460Q128 474 165 483T252 493Q355 493 404 445T454 306V154Q454 135 456 126T464 106L479 80ZM242 80Q291 80 319 99T348 156V199Q348 205 342 205H262Q206 205 182 189T158 140Q158 80 242 80ZM266 529Q222 529 193 557T164 629Q164 673 193 701T266 729Q310 729 339 701T368 629Q368 585 339 557T266 529ZM266 578Q288 578 301 592T315 629Q315 652 302 666T266 680Q244 680 231 666T217 629Q217 606 230 592T266 578Z"  />
<glyph unicode="&#xE6;" horiz-adv-x="815" d="M564 -11Q510 -11 467 6T397 57H395Q361 17 321 3T226 -11Q140 -11 96 27T51 135Q51 213 102 251T243 289H342Q348 289 348 295V307Q348 349 323 372T240 396Q214 396 191 390T152 376Q137 370 123 370Q103 370 90 382T77 416Q77 428 83 440T105 460Q128 474 165 483T252 493Q359 493 407 437H408Q435 465 472 479T555 493Q630 493 681 458T753 360Q768 312 768 244Q768 227 758 216T729 205H460Q454 205 454 199Q454 182 461 162Q473 126 501 108T571 89Q601 89 623 97T669 122Q679 129 689 133T710 138Q732 138 744 125T757 91Q757 65 734 47Q702 21 661 5T564 -11ZM649 289Q655 289 655 295Q655 318 649 336Q639 365 614 381T554 398Q520 398 495 382T460 336Q454 318 454 295Q454 289 460 289H649ZM242 80Q291 80 319 99T348 156V199Q348 205 342 205H262Q206 205 182 189T158 140Q158 80 242 80Z"  />
<glyph unicode="&#xE7;" horiz-adv-x="476" d="M255 -137Q250 -154 238 -162T212 -170Q194 -170 181 -159T167 -128Q167 -123 168 -117T171 -106L209 -6Q157 4 118 36T62 122Q47 167 47 241Q47 315 62 360Q83 425 135 459T260 493Q311 493 350 476T412 432Q423 420 427 410T432 388Q432 367 418 353T383 339Q370 339 359 345T337 363Q323 378 305 385T261 393Q229 393 206 378T171 330Q165 312 163 291T161 241Q161 213 163 192T171 152Q182 120 205 105T261 89Q287 89 305 96T337 119Q348 130 359 136T383 143Q404 143 418 129T432 94Q432 83 428 73T412 50Q394 30 365 14T300 -8L255 -137Z"  />
<glyph unicode="&#xE8;" horiz-adv-x="521" d="M266 -11Q188 -11 136 24T64 123Q56 146 52 174T47 241Q47 279 51 308T63 360Q83 423 135 458T260 493Q335 493 386 458T458 360Q466 336 470 308T474 244Q474 227 464 216T435 205H166Q160 205 160 199Q160 188 162 179T167 162Q192 89 276 89Q307 89 329 97T375 122Q385 129 395 133T416 138Q438 138 450 125T463 91Q463 65 440 47Q408 21 367 5T266 -11ZM361 295Q361 318 355 336Q345 365 320 381T261 398Q226 398 201 382T166 336Q160 318 160 295Q160 289 166 289H355Q361 289 361 295ZM263 545Q240 545 226 565L175 638Q169 647 167 653T164 670Q164 688 177 699T208 711Q232 711 246 691L295 617Q306 600 306 585Q306 567 294 556T263 545Z"  />
<glyph unicode="&#xE9;" horiz-adv-x="521" d="M266 -11Q188 -11 136 24T64 123Q56 146 52 174T47 241Q47 279 51 308T63 360Q83 423 135 458T260 493Q335 493 386 458T458 360Q466 336 470 308T474 244Q474 227 464 216T435 205H166Q160 205 160 199Q160 188 162 179T167 162Q192 89 276 89Q307 89 329 97T375 122Q385 129 395 133T416 138Q438 138 450 125T463 91Q463 65 440 47Q408 21 367 5T266 -11ZM361 295Q361 318 355 336Q345 365 320 381T261 398Q226 398 201 382T166 336Q160 318 160 295Q160 289 166 289H355Q361 289 361 295ZM294 565Q280 545 257 545Q238 545 226 556T214 585Q214 602 225 617L274 691Q287 711 312 711Q329 711 342 700T356 670Q356 660 354 654T345 638L294 565Z"  />
<glyph unicode="&#xEA;" horiz-adv-x="521" d="M266 -11Q188 -11 136 24T64 123Q56 146 52 174T47 241Q47 279 51 308T63 360Q83 423 135 458T260 493Q335 493 386 458T458 360Q466 336 470 308T474 244Q474 227 464 216T435 205H166Q160 205 160 199Q160 188 162 179T167 162Q192 89 276 89Q307 89 329 97T375 122Q385 129 395 133T416 138Q438 138 450 125T463 91Q463 65 440 47Q408 21 367 5T266 -11ZM361 295Q361 318 355 336Q345 365 320 381T261 398Q226 398 201 382T166 336Q160 318 160 295Q160 289 166 289H355Q361 289 361 295ZM357 543Q340 543 325 558L261 626H259L195 558Q180 543 163 543Q149 543 139 552T129 576Q129 590 141 605L205 681Q218 696 230 704T260 713Q278 713 290 705T315 681L379 605Q391 590 391 576Q391 562 381 553T357 543Z"  />
<glyph unicode="&#xEB;" horiz-adv-x="521" d="M266 -11Q188 -11 136 24T64 123Q56 146 52 174T47 241Q47 279 51 308T63 360Q83 423 135 458T260 493Q335 493 386 458T458 360Q466 336 470 308T474 244Q474 227 464 216T435 205H166Q160 205 160 199Q160 188 162 179T167 162Q192 89 276 89Q307 89 329 97T375 122Q385 129 395 133T416 138Q438 138 450 125T463 91Q463 65 440 47Q408 21 367 5T266 -11ZM361 295Q361 318 355 336Q345 365 320 381T261 398Q226 398 201 382T166 336Q160 318 160 295Q160 289 166 289H355Q361 289 361 295ZM361 562Q335 562 318 580T300 623Q300 649 317 666T361 684Q386 684 403 667T421 623Q421 598 404 580T361 562ZM161 562Q135 562 118 580T100 623Q100 649 117 666T161 684Q186 684 203 667T221 623Q221 598 204 580T161 562Z"  />
<glyph unicode="&#xEC;" horiz-adv-x="258" d="M129 -5Q105 -5 89 10T73 54V428Q73 456 89 471T129 487Q154 487 169 472T185 428V54Q185 26 170 11T129 -5ZM122 545Q99 545 85 565L34 638Q28 647 26 653T23 670Q23 688 36 699T67 711Q91 711 105 691L154 617Q165 600 165 585Q165 567 153 556T122 545Z"  />
<glyph unicode="&#xED;" horiz-adv-x="258" d="M129 -5Q105 -5 89 10T73 54V428Q73 456 89 471T129 487Q154 487 169 472T185 428V54Q185 26 170 11T129 -5ZM179 565Q165 545 142 545Q123 545 111 556T99 585Q99 602 110 617L159 691Q172 711 197 711Q214 711 227 700T241 670Q241 660 239 654T230 638L179 565Z"  />
<glyph unicode="&#xEE;" horiz-adv-x="258" d="M129 -5Q105 -5 89 10T73 54V428Q73 456 89 471T129 487Q154 487 169 472T185 428V54Q185 26 170 11T129 -5ZM228 543Q211 543 196 558L132 626H130L66 558Q51 543 34 543Q20 543 10 552T0 576Q0 590 12 605L76 681Q89 696 101 704T131 713Q149 713 161 705T186 681L250 605Q262 590 262 576Q262 562 252 553T228 543Z"  />
<glyph unicode="&#xEF;" horiz-adv-x="258" d="M129 -5Q105 -5 89 10T73 54V428Q73 456 89 471T129 487Q154 487 169 472T185 428V54Q185 26 170 11T129 -5ZM232 562Q206 562 189 580T171 623Q171 649 188 666T232 684Q257 684 274 667T292 623Q292 598 275 580T232 562ZM32 562Q6 562 -11 580T-29 623Q-29 649 -12 666T32 684Q57 684 74 667T92 623Q92 598 75 580T32 562Z"  />
<glyph unicode="&#xF0;" horiz-adv-x="523" d="M341 554L360 528Q393 483 415 444T451 370T471 304T477 241Q477 201 474 174T462 123Q442 60 390 25T262 -11Q186 -11 135 24T63 120Q55 143 51 169T47 226Q47 257 51 283T62 332Q82 390 124 424T228 459Q253 459 267 455T296 441H298L237 523L169 503Q157 499 149 499Q132 499 122 510T111 538Q111 551 118 561T142 577L187 590L178 603Q167 619 167 636Q167 656 181 671T220 686Q234 686 244 679T263 660L291 621L358 641Q370 645 378 645Q395 645 405 634T416 606Q416 593 409 583T385 567L341 554ZM262 89Q334 89 354 153Q359 169 361 187T363 226Q363 269 353 299Q333 363 262 363Q191 363 171 299Q161 269 161 226Q161 183 171 153Q191 89 262 89Z"  />
<glyph unicode="&#xF1;" horiz-adv-x="548" d="M186 437Q205 463 237 478T313 493Q352 493 382 480T435 442T468 386T480 314V54Q480 26 465 11T424 -5Q399 -5 384 10T368 54V288Q368 335 346 364T277 393Q232 393 209 364T185 288V54Q185 26 170 11T129 -5Q104 -5 89 10T73 54V428Q73 456 88 471T129 487Q154 487 167 473T185 437H186ZM330 566Q310 566 296 572T264 588Q247 599 239 602T221 606Q205 606 187 587Q172 572 155 572Q139 572 129 581T119 607Q119 622 130 638Q150 665 171 676T216 688Q236 688 250 682T282 666Q299 655 307 652T325 648Q341 648 359 667Q374 682 391 682Q407 682 417 673T427 647Q427 632 416 616Q396 589 375 578T330 566Z"  />
<glyph unicode="&#xF2;" horiz-adv-x="523" d="M262 -11Q188 -11 136 24T63 122Q55 148 51 174T47 241Q47 281 51 307T63 360Q83 423 135 458T262 493Q335 493 387 458T460 360Q468 334 472 308T476 241Q476 201 472 175T460 122Q440 59 388 24T262 -11ZM262 89Q296 89 318 105T352 152Q358 171 360 190T362 241Q362 272 360 291T352 330Q341 360 319 376T262 393Q228 393 205 377T171 330Q165 310 163 291T161 241Q161 210 163 191T171 152Q182 122 205 106T262 89ZM263 545Q240 545 226 565L175 638Q169 647 167 653T164 670Q164 688 177 699T208 711Q232 711 246 691L295 617Q306 600 306 585Q306 567 294 556T263 545Z"  />
<glyph unicode="&#xF3;" horiz-adv-x="523" d="M262 -11Q188 -11 136 24T63 122Q55 148 51 174T47 241Q47 281 51 307T63 360Q83 423 135 458T262 493Q335 493 387 458T460 360Q468 334 472 308T476 241Q476 201 472 175T460 122Q440 59 388 24T262 -11ZM262 89Q296 89 318 105T352 152Q358 171 360 190T362 241Q362 272 360 291T352 330Q341 360 319 376T262 393Q228 393 205 377T171 330Q165 310 163 291T161 241Q161 210 163 191T171 152Q182 122 205 106T262 89ZM296 565Q282 545 259 545Q240 545 228 556T216 585Q216 602 227 617L276 691Q289 711 314 711Q331 711 344 700T358 670Q358 660 356 654T347 638L296 565Z"  />
<glyph unicode="&#xF4;" horiz-adv-x="523" d="M262 -11Q188 -11 136 24T63 122Q55 148 51 174T47 241Q47 281 51 307T63 360Q83 423 135 458T262 493Q335 493 387 458T460 360Q468 334 472 308T476 241Q476 201 472 175T460 122Q440 59 388 24T262 -11ZM262 89Q296 89 318 105T352 152Q358 171 360 190T362 241Q362 272 360 291T352 330Q341 360 319 376T262 393Q228 393 205 377T171 330Q165 310 163 291T161 241Q161 210 163 191T171 152Q182 122 205 106T262 89ZM358 543Q341 543 326 558L262 626H260L196 558Q181 543 164 543Q150 543 140 552T130 576Q130 590 142 605L206 681Q219 696 231 704T261 713Q279 713 291 705T316 681L380 605Q392 590 392 576Q392 562 382 553T358 543Z"  />
<glyph unicode="&#xF5;" horiz-adv-x="523" d="M262 -11Q188 -11 136 24T63 122Q55 148 51 174T47 241Q47 281 51 307T63 360Q83 423 135 458T262 493Q335 493 387 458T460 360Q468 334 472 308T476 241Q476 201 472 175T460 122Q440 59 388 24T262 -11ZM262 89Q296 89 318 105T352 152Q358 171 360 190T362 241Q362 272 360 291T352 330Q341 360 319 376T262 393Q228 393 205 377T171 330Q165 310 163 291T161 241Q161 210 163 191T171 152Q182 122 205 106T262 89ZM318 566Q298 566 284 572T252 588Q235 599 227 602T209 606Q193 606 175 587Q160 572 143 572Q127 572 117 581T107 607Q107 622 118 638Q138 665 159 676T204 688Q224 688 238 682T270 666Q287 655 295 652T313 648Q329 648 347 667Q362 682 379 682Q395 682 405 673T415 647Q415 632 404 616Q384 589 363 578T318 566Z"  />
<glyph unicode="&#xF6;" horiz-adv-x="523" d="M262 -11Q188 -11 136 24T63 122Q55 148 51 174T47 241Q47 281 51 307T63 360Q83 423 135 458T262 493Q335 493 387 458T460 360Q468 334 472 308T476 241Q476 201 472 175T460 122Q440 59 388 24T262 -11ZM262 89Q296 89 318 105T352 152Q358 171 360 190T362 241Q362 272 360 291T352 330Q341 360 319 376T262 393Q228 393 205 377T171 330Q165 310 163 291T161 241Q161 210 163 191T171 152Q182 122 205 106T262 89ZM362 562Q336 562 319 580T301 623Q301 649 318 666T362 684Q387 684 404 667T422 623Q422 598 405 580T362 562ZM162 562Q136 562 119 580T101 623Q101 649 118 666T162 684Q187 684 204 667T222 623Q222 598 205 580T162 562Z"  />
<glyph unicode="&#xF7;" horiz-adv-x="549" d="M209 450Q209 477 228 496T274 516Q301 516 320 497T340 450Q340 423 321 404T274 384Q247 384 228 403T209 450ZM103 228Q79 228 66 241T52 276Q52 297 65 310T103 324H446Q470 324 483 311T497 276Q497 255 484 242T446 228H103ZM208 102Q208 129 227 148T274 168Q301 168 320 149T340 102Q340 75 321 56T274 36Q247 36 228 55T208 102Z"  />
<glyph unicode="&#xF8;" horiz-adv-x="523" d="M261 -11Q188 -11 138 21L107 -22Q98 -35 84 -35Q74 -35 67 -29T59 -11Q59 -1 66 9L99 56Q75 85 63 123Q55 149 51 176T47 241Q47 279 51 306T63 359Q84 424 135 458T261 493Q333 493 383 461L414 504Q425 518 438 518Q448 518 455 512T463 494Q463 485 455 474L422 427Q447 398 460 359Q468 333 472 306T476 241Q476 203 472 176T460 123Q439 58 388 24T261 -11ZM160 241Q160 185 170 154V152L322 375Q297 394 261 394Q227 394 204 377T170 328Q160 297 160 241ZM261 88Q296 88 319 105T353 154Q363 185 363 241Q363 297 353 328Q353 328 352 329L201 107Q224 88 261 88Z"  />
<glyph unicode="&#xF9;" horiz-adv-x="544" d="M415 -5Q390 -5 377 9T359 45H358Q339 19 307 4T232 -11Q193 -11 163 2T111 40T79 96T67 168V428Q67 456 82 471T123 487Q148 487 163 472T179 428V194Q179 147 200 118T268 89Q313 89 336 118T359 194V428Q359 456 374 471T415 487Q440 487 455 472T471 428V54Q471 26 456 11T415 -5ZM271 545Q248 545 234 565L183 638Q177 647 175 653T172 670Q172 688 185 699T216 711Q240 711 254 691L303 617Q314 600 314 585Q314 567 302 556T271 545Z"  />
<glyph unicode="&#xFA;" horiz-adv-x="544" d="M415 -5Q390 -5 377 9T359 45H358Q339 19 307 4T232 -11Q193 -11 163 2T111 40T79 96T67 168V428Q67 456 82 471T123 487Q148 487 163 472T179 428V194Q179 147 200 118T268 89Q313 89 336 118T359 194V428Q359 456 374 471T415 487Q440 487 455 472T471 428V54Q471 26 456 11T415 -5ZM309 565Q295 545 272 545Q253 545 241 556T229 585Q229 602 240 617L289 691Q302 711 327 711Q344 711 357 700T371 670Q371 660 369 654T360 638L309 565Z"  />
<glyph unicode="&#xFB;" horiz-adv-x="544" d="M415 -5Q390 -5 377 9T359 45H358Q339 19 307 4T232 -11Q193 -11 163 2T111 40T79 96T67 168V428Q67 456 82 471T123 487Q148 487 163 472T179 428V194Q179 147 200 118T268 89Q313 89 336 118T359 194V428Q359 456 374 471T415 487Q440 487 455 472T471 428V54Q471 26 456 11T415 -5ZM369 543Q352 543 337 558L273 626H271L207 558Q192 543 175 543Q161 543 151 552T141 576Q141 590 153 605L217 681Q230 696 242 704T272 713Q290 713 302 705T327 681L391 605Q403 590 403 576Q403 562 393 553T369 543Z"  />
<glyph unicode="&#xFC;" horiz-adv-x="544" d="M415 -5Q390 -5 377 9T359 45H358Q339 19 307 4T232 -11Q193 -11 163 2T111 40T79 96T67 168V428Q67 456 82 471T123 487Q148 487 163 472T179 428V194Q179 147 200 118T268 89Q313 89 336 118T359 194V428Q359 456 374 471T415 487Q440 487 455 472T471 428V54Q471 26 456 11T415 -5ZM372 562Q346 562 329 580T311 623Q311 649 328 666T372 684Q397 684 414 667T432 623Q432 598 415 580T372 562ZM172 562Q146 562 129 580T111 623Q111 649 128 666T172 684Q197 684 214 667T232 623Q232 598 215 580T172 562Z"  />
<glyph unicode="&#xFD;" horiz-adv-x="488" d="M109 -180Q85 -180 71 -166T56 -130Q56 -109 70 -95T109 -80Q135 -79 151 -68T181 -20L195 19L36 408Q30 421 30 434Q30 457 46 472T86 487Q123 487 138 447L247 158H249L352 447Q366 487 404 487Q427 487 442 472T458 434Q458 423 453 408L276 -43Q260 -83 244 -109T210 -151T168 -173T116 -180H109ZM283 565Q269 545 246 545Q227 545 215 556T203 585Q203 602 214 617L263 691Q276 711 301 711Q318 711 331 700T345 670Q345 660 343 654T334 638L283 565Z"  />
<glyph unicode="&#xFE;" horiz-adv-x="545" d="M73 626Q73 654 88 669T129 685Q154 685 169 670T185 626V436H186Q203 461 234 477T316 493Q376 493 419 461T481 371Q490 343 494 313T498 241Q498 200 494 170T481 111Q462 54 419 22T316 -11Q265 -11 234 6T186 46H185V-126Q185 -154 170 -169T129 -185Q104 -185 89 -170T73 -126V626ZM285 89Q317 89 340 103T374 153Q384 183 384 241Q384 299 374 329Q363 364 340 378T285 393Q253 393 230 379T195 329Q185 299 185 241Q185 183 195 153Q206 118 229 104T285 89Z"  />
<glyph unicode="&#xFF;" horiz-adv-x="488" d="M109 -180Q85 -180 71 -166T56 -130Q56 -109 70 -95T109 -80Q135 -79 151 -68T181 -20L195 19L36 408Q30 421 30 434Q30 457 46 472T86 487Q123 487 138 447L247 158H249L352 447Q366 487 404 487Q427 487 442 472T458 434Q458 423 453 408L276 -43Q260 -83 244 -109T210 -151T168 -173T116 -180H109ZM348 562Q322 562 305 580T287 623Q287 649 304 666T348 684Q373 684 390 667T408 623Q408 598 391 580T348 562ZM148 562Q122 562 105 580T87 623Q87 649 104 666T148 684Q173 684 190 667T208 623Q208 598 191 580T148 562Z"  />
<glyph unicode="&#x110;" horiz-adv-x="625" d="M60 298Q37 298 25 310T13 343Q13 363 25 375T60 388H69Q75 388 75 394V627Q75 651 89 665T128 680H294Q398 680 462 643T552 524Q557 508 560 491T566 453T570 404T572 340Q572 304 571 277T567 228T561 189T552 156Q526 75 462 38T294 0H128Q103 0 89 14T75 52V292Q75 298 69 298H60ZM199 298Q193 298 193 292V112Q193 106 199 106H288Q348 106 385 127T439 197Q445 218 448 250T452 340Q452 397 449 429T439 483Q423 531 386 552T288 574H199Q193 574 193 568V394Q193 388 199 388H268Q291 388 303 376T315 343Q315 323 303 311T268 298H199Z"  />
<glyph unicode="&#x131;" horiz-adv-x="258" d="M129 -5Q105 -5 89 10T73 54V428Q73 456 89 471T129 487Q154 487 169 472T185 428V54Q185 26 170 11T129 -5Z"  />
<glyph unicode="&#x152;" horiz-adv-x="947" d="M300 -11Q219 -11 160 30T75 152Q69 170 65 188T59 227T56 276T55 340Q55 377 56 404T59 452T65 492T75 528Q101 609 160 650T300 691Q355 691 392 674T451 627H452Q452 651 466 665T505 680H844Q872 680 888 665T904 627Q904 604 888 589T844 574H576Q570 574 570 568V402Q570 396 576 396H794Q822 396 838 381T854 343Q854 320 838 305T794 290H576Q570 290 570 284V112Q570 106 576 106H844Q872 106 888 91T904 53Q904 30 888 15T844 0H505Q480 0 466 14T452 53H451Q430 24 393 7T300 -11ZM313 95Q364 95 394 118T438 184Q442 195 444 208T448 239T451 281T452 340Q452 374 451 398T449 441T445 472T438 496Q424 538 394 561T313 585Q263 585 233 562T189 496Q185 485 183 472T179 441T176 399T175 340Q175 306 176 282T178 239T182 208T189 184Q203 142 233 119T313 95Z"  />
<glyph unicode="&#x153;" horiz-adv-x="834" d="M573 493Q648 493 699 458T772 360Q787 312 787 244Q787 227 777 216T748 205H479Q473 205 473 199Q473 182 480 162Q492 126 520 108T590 89Q620 89 642 97T688 122Q698 129 708 133T729 138Q751 138 763 125T776 91Q776 65 753 47Q721 21 678 5T582 -11Q528 -11 489 4T420 55H418Q391 21 351 5T260 -11Q187 -11 136 23T63 123Q55 149 51 176T47 241Q47 279 51 306T63 359Q84 424 135 458T260 493Q314 493 351 477T417 430H419Q445 461 484 477T573 493ZM668 289Q674 289 674 295Q674 318 668 336Q658 365 633 381T573 398Q539 398 514 382T479 336Q473 318 473 295Q473 289 479 289H668ZM261 89Q296 89 319 106T352 155Q357 172 359 192T362 241Q362 270 360 290T352 327Q342 359 319 376T261 393Q227 393 204 376T171 327Q166 310 164 290T161 241Q161 212 163 192T171 155Q181 123 204 106T261 89Z"  />
<glyph unicode="&#x160;" horiz-adv-x="587" d="M287 -11Q218 -11 164 8T75 50Q45 69 45 101Q45 122 60 138T98 155Q117 155 136 144Q175 121 212 108T293 95Q356 95 390 121T425 193Q425 230 399 254T302 287L267 292Q61 319 61 487Q61 533 77 570T123 635T195 676T290 691Q346 691 395 678T475 645Q505 628 505 597Q505 574 491 560T453 545Q444 545 434 547T416 554Q387 568 356 576T289 585Q235 585 208 559T181 494Q181 457 209 435T305 402L339 397Q444 383 494 335T545 198Q545 153 529 115T480 48T400 5T287 -11ZM294 734Q276 734 264 742T239 766L175 842Q163 857 163 871Q163 885 173 894T197 904Q214 904 229 889L293 821H295L359 889Q374 904 391 904Q405 904 415 895T425 871Q425 857 413 842L349 766Q336 751 324 743T294 734Z"  />
<glyph unicode="&#x161;" horiz-adv-x="498" d="M250 -11Q194 -11 149 3T74 38Q47 55 47 83Q47 103 61 118T98 134Q114 134 133 123Q161 106 189 95T256 84Q298 84 321 99T345 141Q345 163 329 176T265 194L213 199Q138 207 102 243T65 341Q65 410 113 451T252 493Q294 493 331 483T398 457Q415 448 423 437T432 411Q432 390 419 376T385 362Q371 362 350 373Q327 384 300 391T246 399Q208 399 191 385T173 349Q173 328 189 316T252 298L304 293Q381 285 417 248T453 151Q453 79 401 34T250 -11ZM251 538Q233 538 221 546T196 570L132 646Q120 661 120 675Q120 689 130 698T154 708Q171 708 186 693L250 625H252L316 693Q331 708 348 708Q362 708 372 699T382 675Q382 661 370 646L306 570Q293 555 281 547T251 538Z"  />
<glyph unicode="&#x178;" horiz-adv-x="536" d="M268 -5Q242 -5 226 11T209 57V278L29 600Q20 616 20 632Q20 655 36 670T76 685Q109 685 128 651L268 395H271L410 651Q428 685 462 685Q486 685 501 670T516 632Q516 616 507 600L327 278V57Q327 28 311 12T268 -5ZM369 760Q343 760 326 777T308 821Q308 846 325 863T369 881Q394 881 411 864T429 821Q429 795 412 778T369 760ZM169 760Q143 760 126 777T108 821Q108 846 125 863T169 881Q194 881 211 864T229 821Q229 795 212 778T169 760Z"  />
<glyph unicode="&#x17D;" horiz-adv-x="538" d="M98 0Q68 0 52 16T36 56Q36 77 44 95T72 142L355 572V574H105Q79 574 64 589T48 627Q48 650 63 665T105 680H438Q468 680 484 664T500 624Q500 606 494 590T466 542L181 108V106H443Q469 106 484 91T500 53Q500 30 485 15T443 0H98ZM266 734Q248 734 236 742T211 766L147 842Q135 857 135 871Q135 885 145 894T169 904Q186 904 201 889L265 821H267L331 889Q346 904 363 904Q377 904 387 895T397 871Q397 857 385 842L321 766Q308 751 296 743T266 734Z"  />
<glyph unicode="&#x17E;" horiz-adv-x="471" d="M86 0Q63 0 49 13T35 49Q35 66 44 82T70 118L292 382V384H100Q76 384 63 398T49 433Q49 454 62 468T100 482H384Q407 482 421 469T435 433Q435 416 427 400T400 363L181 100V98H384Q408 98 421 84T435 49Q435 28 422 14T384 0H86ZM239 538Q221 538 209 546T184 570L120 646Q108 661 108 675Q108 689 118 698T142 708Q159 708 174 693L238 625H240L304 693Q319 708 336 708Q350 708 360 699T370 675Q370 661 358 646L294 570Q281 555 269 547T239 538Z"  />
<glyph unicode="&#x192;" horiz-adv-x="549" d="M340 324L288 -20Q281 -64 268 -94T234 -144T184 -171T114 -180H108Q84 -180 71 -167T57 -132Q57 -111 70 -97T108 -83Q140 -83 157 -69T180 -18L233 324H193Q170 324 158 335T146 367Q146 386 158 397T193 409H246L263 520Q270 564 283 594T316 644T366 671T435 680H441Q465 680 478 667T492 632Q492 611 479 597T441 583Q409 583 393 569T370 518L353 409H410Q433 409 445 398T457 367Q457 347 445 336T410 324H340Z"  />
<glyph unicode="&#x2C6;" horiz-adv-x="444" d="M319 543Q302 543 287 558L223 626H221L157 558Q142 543 125 543Q111 543 101 552T91 576Q91 590 103 605L167 681Q180 696 192 704T222 713Q240 713 252 705T277 681L341 605Q353 590 353 576Q353 562 343 553T319 543Z"  />
<glyph unicode="&#x2C7;" horiz-adv-x="444" d="M222 538Q204 538 192 546T167 570L103 646Q91 661 91 675Q91 689 101 698T125 708Q142 708 157 693L221 625H223L287 693Q302 708 319 708Q333 708 343 699T353 675Q353 661 341 646L277 570Q264 555 252 547T222 538Z"  />
<glyph unicode="&#x2DA;" horiz-adv-x="444" d="M222 529Q178 529 149 557T120 629Q120 673 149 701T222 729Q266 729 295 701T324 629Q324 585 295 557T222 529ZM222 578Q244 578 257 592T271 629Q271 652 258 666T222 680Q200 680 187 666T173 629Q173 606 186 592T222 578Z"  />
<glyph unicode="&#x2DC;" horiz-adv-x="444" d="M279 566Q259 566 245 572T213 588Q196 599 188 602T170 606Q154 606 136 587Q121 572 104 572Q88 572 78 581T68 607Q68 622 79 638Q99 665 120 676T165 688Q185 688 199 682T231 666Q248 655 256 652T274 648Q290 648 308 667Q323 682 340 682Q356 682 366 673T376 647Q376 632 365 616Q345 589 324 578T279 566Z"  />
<glyph unicode="&#x3BC;" horiz-adv-x="550" d="M185 -126Q185 -154 170 -169T129 -185Q104 -185 89 -170T73 -126V428Q73 456 88 471T129 487Q154 487 169 472T185 428V194Q185 147 206 118T274 89Q319 89 342 118T365 194V428Q365 456 380 471T421 487Q446 487 461 472T477 428V54Q477 26 462 11T421 -5Q396 -5 383 9T365 45H364Q347 22 322 6T258 -11Q232 -11 215 -3T186 19H185V-126Z"  />
<glyph unicode="&#x2013;" horiz-adv-x="519" d="M67 216Q42 216 29 229T15 264Q15 286 28 299T67 312H452Q477 312 490 299T504 264Q504 242 491 229T452 216H67Z"  />
<glyph unicode="&#x2014;" horiz-adv-x="867" d="M67 216Q42 216 29 229T15 264Q15 286 28 299T67 312H800Q825 312 838 299T852 264Q852 242 839 229T800 216H67Z"  />
<glyph unicode="&#x2018;" horiz-adv-x="224" d="M103 483Q82 483 68 496T54 531Q54 541 57 552L87 647Q93 666 105 675T135 685Q156 685 170 672T184 637Q184 626 181 616L151 521Q145 502 133 493T103 483Z"  />
<glyph unicode="&#x2019;" horiz-adv-x="224" d="M103 483Q82 483 68 496T54 531Q54 541 57 552L87 647Q93 666 105 675T135 685Q156 685 170 672T184 637Q184 626 181 616L151 521Q145 502 133 493T103 483Z"  />
<glyph unicode="&#x201A;" horiz-adv-x="224" d="M103 -101Q82 -101 68 -88T54 -53Q54 -43 57 -32L87 63Q93 82 105 91T135 101Q156 101 170 88T184 53Q184 42 181 32L151 -63Q145 -82 133 -91T103 -101Z"  />
<glyph unicode="&#x201C;" horiz-adv-x="393" d="M272 483Q251 483 237 496T223 531Q223 541 226 552L256 647Q262 666 274 675T304 685Q325 685 339 672T353 637Q353 626 350 616L320 521Q314 502 302 493T272 483ZM103 483Q82 483 68 496T54 531Q54 541 57 552L87 647Q93 666 105 675T135 685Q156 685 170 672T184 637Q184 626 181 616L151 521Q145 502 133 493T103 483Z"  />
<glyph unicode="&#x201D;" horiz-adv-x="393" d="M272 483Q251 483 237 496T223 531Q223 541 226 552L256 647Q262 666 274 675T304 685Q325 685 339 672T353 637Q353 626 350 616L320 521Q314 502 302 493T272 483ZM103 483Q82 483 68 496T54 531Q54 541 57 552L87 647Q93 666 105 675T135 685Q156 685 170 672T184 637Q184 626 181 616L151 521Q145 502 133 493T103 483Z"  />
<glyph unicode="&#x201E;" horiz-adv-x="393" d="M272 -101Q251 -101 237 -88T223 -53Q223 -43 226 -32L256 63Q262 82 274 91T304 101Q325 101 339 88T353 53Q353 42 350 32L320 -63Q314 -82 302 -91T272 -101ZM103 -101Q82 -101 68 -88T54 -53Q54 -43 57 -32L87 63Q93 82 105 91T135 101Q156 101 170 88T184 53Q184 42 181 32L151 -63Q145 -82 133 -91T103 -101Z"  />
<glyph unicode="&#x2020;" horiz-adv-x="535" d="M435 451Q458 451 471 438T485 404Q485 384 472 370T435 356H327Q321 356 321 350V-128Q321 -154 306 -169T267 -185Q244 -185 229 -170T214 -128V350Q214 356 208 356H100Q77 356 64 370T50 404Q50 424 63 437T100 451H208Q214 451 214 457V629Q214 655 229 670T268 685Q292 685 306 670T321 629V457Q321 451 327 451H435Z"  />
<glyph unicode="&#x2021;" horiz-adv-x="535" d="M214 13Q214 19 208 19H100Q77 19 64 33T50 67Q50 87 63 100T100 114H208Q214 114 214 120V380Q214 386 208 386H100Q77 386 64 400T50 434Q50 454 63 467T100 481H208Q214 481 214 487V629Q214 655 229 670T268 685Q292 685 306 670T321 629V487Q321 481 327 481H435Q458 481 471 468T485 434Q485 414 472 400T435 386H327Q321 386 321 380V120Q321 114 327 114H435Q458 114 471 101T485 67Q485 47 472 33T435 19H327Q321 19 321 13V-129Q321 -155 307 -170T268 -185Q244 -185 229 -170T214 -129V13Z"  />
<glyph unicode="&#x2022;" horiz-adv-x="458" d="M229 169Q200 169 175 180T131 209T101 253T90 308Q90 337 101 362T130 406T174 436T229 447Q258 447 283 436T327 407T357 363T368 308Q368 279 357 254T328 210T284 180T229 169Z"  />
<glyph unicode="&#x2026;" horiz-adv-x="740" d="M620 -9Q591 -9 571 11T550 61Q550 90 570 110T620 131Q649 131 669 111T689 61Q689 32 669 12T620 -9ZM373 -9Q344 -9 324 11T303 61Q303 90 323 110T373 131Q402 131 422 111T443 61Q443 32 423 12T373 -9ZM126 -9Q97 -9 77 11T57 61Q57 90 77 110T126 131Q155 131 175 111T196 61Q196 32 176 12T126 -9Z"  />
<glyph unicode="&#x2030;" horiz-adv-x="1090" d="M206 -16Q190 -16 180 -6T170 20Q170 32 176 43L540 673Q553 695 576 695Q592 695 602 685T612 659Q612 648 605 636L241 7Q229 -16 206 -16ZM192 330Q147 330 115 351T71 409Q68 417 67 425T64 444T63 470T62 509Q62 532 62 547T64 574T66 593T71 609Q82 645 114 666T192 688Q237 688 269 667T313 609Q316 601 317 593T320 574T321 548T322 509Q322 486 322 471T320 444T318 425T313 409Q302 373 270 352T192 330ZM192 402Q208 402 219 409T236 431Q237 434 238 439T239 452T240 474T241 509Q241 530 241 543T240 565T238 579T236 587Q231 601 220 608T192 616Q176 616 165 609T148 587Q147 584 146 579T145 566T144 544T143 509Q143 488 143 475T144 453T146 439T148 431Q153 417 164 410T192 402ZM898 -9Q853 -9 821 12T777 70Q774 78 773 86T770 105T769 131T768 170Q768 193 768 208T770 235T772 254T777 270Q788 306 820 327T898 349Q943 349 975 328T1019 270Q1022 262 1023 254T1026 235T1027 209T1028 170Q1028 147 1028 132T1026 105T1024 86T1019 70Q1008 34 976 13T898 -9ZM589 -9Q544 -9 512 12T468 70Q465 78 464 86T461 105T460 131T459 170Q459 193 459 208T461 235T463 254T468 270Q479 306 511 327T589 349Q634 349 666 328T710 270Q713 262 714 254T717 235T718 209T719 170Q719 147 719 132T717 105T715 86T710 70Q699 34 667 13T589 -9ZM898 63Q914 63 925 70T942 92Q943 95 944 100T945 113T946 135T947 170Q947 191 947 204T946 226T944 240T942 248Q937 262 926 269T898 277Q882 277 871 270T854 248Q853 245 852 240T851 227T850 205T849 170Q849 149 849 136T850 114T852 100T854 92Q859 78 870 71T898 63ZM589 63Q605 63 616 70T633 92Q634 95 635 100T636 113T637 135T638 170Q638 191 638 204T637 226T635 240T633 248Q628 262 617 269T589 277Q573 277 562 270T545 248Q544 245 543 240T542 227T541 205T540 170Q540 149 540 136T541 114T543 100T545 92Q550 78 561 71T589 63Z"  />
<glyph unicode="&#x2039;" horiz-adv-x="323" d="M226 74Q215 74 207 78T192 89L56 226Q45 237 41 245T36 264Q36 275 40 283T56 302L192 439Q199 446 207 450T226 454Q243 454 255 443T267 413Q267 394 251 378L143 269Q138 264 143 259L251 150Q267 134 267 115Q267 96 255 85T226 74Z"  />
<glyph unicode="&#x203A;" horiz-adv-x="323" d="M97 74Q80 74 68 85T56 115Q56 134 72 150L180 259Q185 264 180 269L72 378Q56 394 56 413Q56 432 68 443T97 454Q108 454 116 450T131 439L267 302Q278 291 282 283T287 264Q287 253 283 245T267 226L131 89Q124 82 116 78T97 74Z"  />
<glyph unicode="&#x2044;" horiz-adv-x="236" d="M-67 -16Q-83 -16 -93 -6T-103 20Q-103 32 -97 43L267 673Q280 695 303 695Q319 695 329 685T339 659Q339 648 332 636L-32 7Q-46 -16 -67 -16Z"  />
<glyph unicode="&#x20AC;" horiz-adv-x="549" d="M101 232Q101 238 95 238H77Q57 238 46 249T35 277Q35 294 46 305T77 316H95Q101 316 101 322V363Q101 369 95 369H77Q57 369 46 380T35 408Q35 425 46 436T77 447H95Q101 447 101 453Q101 507 114 547Q136 616 188 653T318 691Q354 691 383 682T436 659T475 627T499 589Q503 578 503 566Q503 546 489 533T455 520Q428 520 407 548Q391 569 370 580T318 591Q245 591 223 521Q218 507 216 492T214 453Q214 447 220 447H385Q405 447 416 436T427 408Q427 391 416 380T385 369H220Q214 369 214 363V322Q214 316 220 316H345Q365 316 376 305T387 277Q387 260 376 249T345 238H220Q214 238 214 232Q214 205 216 189T223 159Q245 89 318 89Q349 89 370 100T407 132Q428 160 455 160Q475 160 489 147T503 114Q503 102 499 91Q491 72 475 54T436 21T384 -2T318 -11Q240 -11 188 26T114 133Q101 173 101 232Z"  />
<glyph unicode="&#x2122;" horiz-adv-x="850" d="M717 500H715L653 366Q639 337 612 337Q585 337 571 366L507 500H505V322Q505 302 494 292T466 281Q449 281 438 291T427 322V642Q427 661 438 673T468 685Q498 685 513 651L611 440H615L709 651Q724 685 754 685Q773 685 784 673T795 642V322Q795 302 784 292T756 281Q739 281 728 291T717 322V500ZM323 680Q340 680 351 671T362 644Q362 627 351 617T323 607H248Q242 607 242 601V324Q242 304 230 293T200 281Q183 281 171 292T159 324V601Q159 607 153 607H78Q61 607 50 617T39 644Q39 661 50 670T78 680H323Z"  />

</font>
</defs>
</svg>
